<?xml version="1.0" standalone="no"?>
<!DOCTYPE svg PUBLIC "-//W3C//DTD SVG 1.1//EN" "http://www.w3.org/Graphics/SVG/1.1/DTD/svg11.dtd" >
<svg xmlns="http://www.w3.org/2000/svg">
<metadata>Generated by IcoMoon</metadata>
<defs>
<font id="Vue-Awesome" horiz-adv-x="1024">
<font-face units-per-em="1024" ascent="960" descent="-64" />
<missing-glyph horiz-adv-x="1024" />
<glyph unicode="&#x20;" horiz-adv-x="512" d="" />
<glyph unicode="&#xe900;" glyph-name="accept" d="M972.821 806.4q21.995 0 36.587-14.592t14.592-36.587q0-21.611-14.784-36.395l-614.421-614.421q-14.784-14.784-36.395-14.784t-36.395 14.784l-307.2 307.2q-14.784 14.784-14.784 36.395 0 21.995 14.592 36.587t36.587 14.592q21.611 0 36.395-14.784l270.805-271.232 578.005 578.432q14.784 14.784 36.395 14.784z" />
<glyph unicode="&#xe901;" glyph-name="activity" d="M977.451 494.549h-186.176c-20.075 0-37.824-12.8-44.224-31.701l-95.424-286.549-235.051 705.451c-6.422 18.613-23.789 31.744-44.224 31.744s-37.802-13.131-44.125-31.416l-128.973-387.528h-152.725c-25.6 0-46.549-20.949-46.549-46.549s20.949-46.549 46.549-46.549h186.176c20.075 0 37.824 12.8 44.224 31.701l95.424 286.549 235.051-705.451c6.422-18.613 23.789-31.744 44.224-31.744s37.802 13.131 44.125 31.416l128.973 387.528h152.725c25.6 0 46.549 20.949 46.549 46.549s-20.949 46.549-46.549 46.549z" />
<glyph unicode="&#xe902;" glyph-name="airplane" d="M938.183 569.006h-14.108v119.717c0 15.72-12.496 28.619-28.216 28.619h-84.043c-11.085 0-20.96-6.046-25.798-16.123l-63.083-132.212h-528.446c-13.503 0-26.201-3.426-37.689-9.069-106.415-54.014-143.499-151.157-155.591-223.713-9.069-53.409 35.673-102.182 84.648-99.764h163.25c18.139-34.262 53.61-57.843 94.725-57.843h148.336c15.72 0 28.619 12.697 28.619 28.619v29.224h199.528c15.317 0 30.635 4.434 43.936 12.496l218.271 131.003c25.596 15.72 41.316 43.936 41.316 73.765v29.627c0 47.363-38.293 85.656-85.656 85.656zM966.802 453.522c0-10.077-5.24-19.348-14.108-24.185l-218.070-131.406c-4.434-2.62-9.473-4.031-14.713-4.031h-228.953c-15.317-0.806-27.41-13.302-27.41-28.619v-29.425h-119.515c-27.208 0-49.378 22.17-49.378 49.378s22.17 49.378 49.378 49.378h245.883c15.519 0 28.216 12.697 28.216 28.619s-12.496 28.216-28.216 28.216h-245.883c-55.827 0-101.578-43.936-106.012-98.756h-151.359c-16.728 0-31.239 16.123-28.216 33.255 4.031 25.394 12.093 54.417 26.805 83.237h116.895c15.72 0 28.216 12.697 28.216 28.619 0 15.72-12.093 28.619-28.216 28.619h-77.191c15.519 15.72 34.262 30.231 57.238 41.518 3.225 2.015 7.457 3.023 12.093 3.023h546.182c11.085 0 20.96 6.046 25.798 16.123l63.083 132.414h37.285v-118.91c0-16.123 12.697-28.821 28.619-28.821h42.324c16.123 0 28.821-13.302 28.821-29.022v-28.619z" />
<glyph unicode="&#xe903;" glyph-name="anchor" d="M512 917.333q70.677 0 120.661-50.005t50.005-120.661q0-59.008-36.011-104.832t-92.011-60.16v-515.328q70.997 8 134.165 41.173t108.672 83.499 72 117.333 26.496 139.669q0 17.664 12.501 30.165t30.165 12.501 30.165-12.501 12.501-30.165q0-95.659-37.163-182.507t-100.011-149.675-149.675-100.011-182.507-37.163-182.507 37.163-149.675 100.011-100.011 149.675-37.163 182.507q0 17.664 12.501 30.165t30.165 12.501 30.165-12.501 12.501-30.165q0-72.661 26.496-139.669t72-117.333 108.672-83.499 134.165-41.173v515.328q-56 14.336-92.011 60.16t-36.011 104.832q0 70.677 50.005 120.661t120.661 50.005zM512 832q-35.328 0-60.331-25.003t-25.003-60.331 25.003-60.331 60.331-25.003 60.331 25.003 25.003 60.331-25.003 60.331-60.331 25.003z" />
<glyph unicode="&#xe904;" glyph-name="arrow-down" d="M512 960q21.205 0 36.203-14.997t14.997-36.203v-797.995l270.805 271.189q14.805 14.805 36.395 14.805 21.995 0 36.608-14.592t14.592-36.608q0-21.611-14.805-36.395l-358.4-358.4q-14.805-14.805-36.395-14.805t-36.395 14.805l-358.4 358.4q-14.805 14.805-14.805 36.395 0 21.995 14.592 36.608t36.608 14.592q21.611 0 36.395-14.805l270.805-271.189v797.995q0 21.205 14.997 36.203t36.203 14.997z" />
<glyph unicode="&#xe905;" glyph-name="arrow-left" d="M409.6 857.6q21.205 0 36.203-14.997t14.997-36.203q0-21.589-15.189-36.395l-270.805-270.805h797.995q21.205 0 36.203-14.997t14.997-36.203-14.997-36.203-36.203-14.997h-797.995l270.805-270.805q15.189-14.805 15.189-36.395 0-21.205-14.997-36.203t-36.203-14.997q-21.611 0-36.395 14.805l-358.4 358.4q-14.805 15.595-14.805 36.395t14.805 36.395l358.4 358.4q15.189 14.805 36.395 14.805z" />
<glyph unicode="&#xe906;" glyph-name="arrow-right" d="M614.4 857.6q21.611 0 36.395-14.805l358.4-358.4q14.805-14.805 14.805-36.395t-14.805-36.395l-358.4-358.4q-14.805-14.805-36.395-14.805-21.995 0-36.608 14.592t-14.592 36.608q0 21.611 14.805 36.395l271.189 270.805h-797.995q-21.205 0-36.203 14.997t-14.997 36.203 14.997 36.203 36.203 14.997h797.995l-271.211 270.805q-14.805 14.805-14.805 36.395 0 21.995 14.592 36.608t36.608 14.592z" />
<glyph unicode="&#xe907;" glyph-name="arrow-up" d="M512 960q21.611 0 36.395-14.805l358.4-358.4q14.805-14.805 14.805-36.395 0-21.995-14.592-36.608t-36.608-14.592q-21.611 0-36.395 14.805l-270.805 271.189v-797.995q0-21.205-14.997-36.203t-36.203-14.997-36.203 14.997-14.997 36.203v797.995l-270.805-271.189q-14.805-14.805-36.395-14.805-21.995 0-36.608 14.592t-14.592 36.608q0 21.611 14.805 36.395l358.4 358.4q14.805 14.805 36.395 14.805z" />
<glyph unicode="&#xe908;" glyph-name="asterisk" d="M624.64 252.779v-5.376c-0.043-63.701 0.064-127.381-0.149-191.083-0.192-53.376-34.624-97.451-86.379-110.059-37.035-9.024-70.144 0.533-99.413 24.021-24.021 19.285-36.139 45.12-38.677 75.541-0.661 8.085-0.704 16.235-0.704 24.299-0.064 59.285-0.043 118.549-0.064 177.835v4.757c-1.707-0.939-3.072-1.643-4.352-2.368-55.68-32.043-111.403-64.021-167.040-96.171-65.643-37.952-150.272-0.875-166.251 75.925-9.557 45.867 11.648 94.016 53.248 118.613 46.848 27.691 94.144 54.613 141.248 81.856 9.877 5.717 19.755 11.435 30.144 17.387-1.557 0.939-2.709 1.707-3.925 2.432-54.997 31.765-110.016 63.445-164.992 95.275-30.997 17.941-49.536 44.608-56.256 79.808-10.219 53.504 24.725 114.411 85.013 128.235 29.76 6.827 57.877 2.091 84.224-13.077 54.933-31.595 109.824-63.339 164.736-95.019 1.131-0.661 2.304-1.237 4.032-2.155v4.864c0 62.72 0.085 125.419 0 188.16-0.021 24.917 6.101 47.957 20.48 68.416 18.411 26.176 43.904 40.939 75.285 46.699 52.437 9.6 118.613-26.048 128.512-95.659 0.853-6.059 1.045-12.245 1.045-18.368 0.085-62.955 0.064-125.931 0.085-188.885v-5.184c1.643 0.875 2.88 1.493 4.075 2.176 55.467 31.957 111.040 63.68 166.336 95.915 67.029 39.061 152.576 0.469 167.445-77.568 1.899-9.92 2.901-19.925 1.643-29.675-4.011-30.379-16.128-56.853-40.597-76.459-6.592-5.269-13.632-10.112-20.971-14.336-53.632-31.168-107.392-62.123-161.109-93.163-1.131-0.661-2.24-1.387-3.797-2.368 1.664-1.003 3.008-1.835 4.331-2.581 54.144-31.253 108.181-62.699 162.496-93.739 34.624-19.797 54.677-49.493 59.499-88.576 3.243-26.368-3.349-51.499-18.56-73.493-22.571-32.619-53.952-49.856-93.867-50.261-21.504-0.213-41.323 6.315-59.883 17.045-48.171 27.883-96.341 55.68-144.555 83.499-7.189 4.139-14.421 8.277-22.379 12.885zM473.664 711.168h-0.128c0-42.56 0-85.077-0.043-127.637 0-2.581-0.213-5.184-0.448-7.744-1.557-16.043-12.309-29.141-27.093-32.768-11.563-2.837-22.101 0.192-32.107 5.995-63.808 36.864-127.637 73.749-191.467 110.592-10.645 6.123-21.12 12.587-32.043 18.176-14.656 7.552-29.269 6.72-42.112-3.861-12.523-10.325-17.301-23.957-13.013-39.957 3.093-11.435 10.923-19.157 20.992-24.981 72.811-41.984 145.579-83.968 218.24-126.144 5.333-3.093 10.475-7.040 14.592-11.627 11.691-12.971 12.224-31.403 1.173-44.885-4.16-5.077-9.685-9.536-15.403-12.843-60.608-35.285-121.387-70.272-182.123-105.387-13.504-7.808-27.115-15.467-40.405-23.616-14.869-9.131-21.525-26.261-17.152-42.752 4.096-15.467 19.285-27.627 35.328-28.309 9.387-0.405 17.493 3.115 25.344 7.68 65.28 37.76 130.603 75.477 195.925 113.216 9.472 5.461 18.795 11.243 28.565 16.107 15.339 7.68 33.28 3.755 44.203-9.003 6.827-7.979 9.088-17.515 9.088-27.755v-88.512c0.043-56.32-0.021-112.64 0.128-168.96 0.021-16.299 7.637-28.373 22.485-35.115 14.528-6.592 28.48-4.459 40.704 5.675 9.941 8.235 13.611 19.541 13.611 32.171v223.915c0 11.691-0.128 23.36 0.085 35.051 0.32 16.768 10.965 30.677 26.667 34.88 11.307 3.029 21.781 0.704 31.829-5.12 67.179-38.891 134.4-77.717 201.6-116.565 7.68-4.416 15.275-8.939 23.147-13.013 18.304-9.493 39.957-3.499 50.261 13.739 8.363 13.995 9.813 37.888-11.008 51.84-2.837 1.92-5.845 3.627-8.811 5.376-71.701 41.429-143.381 82.816-215.061 124.267-3.691 2.155-7.317 4.587-10.539 7.381-12.587 11.072-16.363 27.755-9.685 42.155 4.139 8.96 11.179 15.061 19.563 19.925 56.832 32.768 113.621 65.579 170.411 98.411 17.643 10.197 35.392 20.309 52.821 30.848 14.997 9.088 20.608 24 16.64 42.112-3.243 14.784-16.363 26.176-32.256 28.309-10.325 1.387-19.328-2.048-28.011-7.083-67.947-39.296-135.915-78.571-203.883-117.824-7.125-4.096-14.123-8.555-21.589-11.904-21.163-9.429-43.819 0.661-50.261 22.357-1.493 4.949-1.963 10.411-1.963 15.637-0.085 83.627-0.064 167.232-0.085 250.859 0 3.691-0.213 7.381-0.64 11.008-1.792 16.299-16.128 30.976-32.085 33.109-23.701 3.157-43.861-13.888-43.968-37.824-0.213-43.157-0.064-86.315-0.064-129.472z" />
<glyph unicode="&#xe909;" glyph-name="at" d="M1024 414.72c-1.28-11.413-2.325-22.848-3.861-34.219-3.904-28.928-11.413-56.768-25.493-82.56-19.264-35.264-47.808-59.755-86.080-72.085-38.571-12.459-77.909-14.443-117.419-5.184-42.197 9.899-74.816 33.963-98.752 69.952-1.365 2.091-2.816 4.16-3.733 5.525-12.715-11.371-24.555-23.509-37.888-33.6-137.792-104.171-332.608-27.008-366.571 139.029-26.155 127.936 56.512 250.091 184.661 275.2 126.059 24.683 252.032-62.635 272.235-189.013 2.432-15.296 3.157-30.955 3.648-46.464 0.789-24.597 2.88-48.981 11.029-72.384 15.701-45.12 49.429-65.749 97.429-59.84 5.269 0.64 10.581 1.344 15.765 2.475 26.368 5.824 42.688 22.592 51.264 47.659 6.613 19.349 8.875 39.488 9.984 59.712 4.928 90.752-14.635 175.637-64.128 252.245-68.032 105.387-164.16 170.176-288.213 190.251-221.611 35.819-432.043-110.528-476.48-329.813-45.867-226.347 100.629-449.301 327.147-493.717 140.949-27.648 265.749 8.768 371.584 106.496 22.208 20.523 50.816 19.093 67.776 2.645 19.2-18.645 19.157-48.384-0.427-67.392-37.672-36.67-81.205-67.572-129.011-91.121-59.029-29.278-124.592-47.331-193.918-51.365-3.257-0.17-5.070-0.746-6.926-1.087h-51.2c-2.304 0.384-4.587 0.832-6.891 1.109-21.76 2.752-43.797 4.075-65.216 8.427-132.331 26.901-238.571 95.189-318.059 204.267-51.712 70.933-82.24 150.549-92.565 237.824-1.387 11.584-2.432 23.211-3.648 34.795v51.2c0.384 2.261 0.789 4.523 1.088 6.784 2.752 21.76 4.032 43.797 8.405 65.216 27.093 133.291 96.064 240.043 206.272 319.573 70.464 50.837 149.376 80.896 235.733 91.136 11.605 1.387 23.253 2.453 34.88 3.691h51.2c2.304-0.384 4.587-0.832 6.869-1.131 21.76-2.752 43.797-4.053 65.216-8.405 132.331-26.923 238.592-95.189 318.037-204.267 51.712-70.933 82.24-150.549 92.587-237.824 1.387-11.584 2.432-23.189 3.648-34.773v-58.88zM511.872 587.584c-77.043-0.109-139.456-62.59-139.456-139.648 0-0.023 0-0.045 0-0.068 0.073-77.020 62.529-139.431 139.563-139.431 77.078 0 139.563 62.484 139.563 139.563 0 0.045 0 0.090 0 0.135-0.085 77.031-62.556 139.449-139.605 139.449-0.038 0-0.075 0-0.113 0z" />
<glyph unicode="&#xe90a;" glyph-name="award" d="M718.976 347.968c81.152 62.251 133.547 160.427 133.547 270.293 0 187.819-152.704 340.544-340.544 340.544s-340.544-152.704-340.544-340.544c0-110.144 52.416-208.043 133.547-270.293l-48.149-362.624c-0.243-1.706-0.382-3.676-0.382-5.679 0-14.82 7.594-27.866 19.102-35.46 6.697-4.475 14.74-7.083 23.393-7.083 8.135 0 15.732 2.306 22.173 6.299l190.839 114.563 191.019-114.667c6.656-3.989 14.357-6.123 21.824-6.123 8.256 0 16.235 2.389 23.403 6.912 11.655 7.803 19.226 20.917 19.226 35.8 0 1.917-0.126 3.805-0.369 5.655l-48.126 362.406zM256.597 618.261c0 140.736 114.667 255.403 255.403 255.403s255.403-114.667 255.403-255.403c0-88.853-45.483-167.083-114.667-213.099-1.856-1.067-3.456-2.133-5.056-3.2-38.416-24.534-85.256-39.104-135.5-39.104-0.063 0-0.126 0-0.19 0-140.726 0-255.393 114.667-255.393 255.403zM533.824 143.915c-6.281 3.76-13.857 5.983-21.952 5.983s-15.671-2.223-22.15-6.092l-136.805-82.088 31.915 240.512c39.381-15.957 82.197-24.469 127.168-24.469s87.787 8.789 127.168 24.469l31.915-240.768-137.28 82.475z" />
<glyph unicode="&#xe90b;" glyph-name="bell" horiz-adv-x="917" d="M450.965 959.808c-16.64-1.92-30.485-17.728-30.208-34.475v-36.245c-63.381-7.915-117.675-37.547-158.485-79.595-47.957-49.408-78.251-115.179-90.965-185.152l-45.483-250.176c-9.429-51.904-28.672-62.571-56.149-80.661-13.739-9.045-30.485-18.709-45.141-35.883s-24.512-42.283-24.512-71.424c0-49.813 41.173-90.965 90.965-90.965h193.664c5.909-88.64 80.149-159.211 170.219-159.211s164.309 70.571 170.219 159.211h193.664c49.813 0 90.965 41.173 90.965 90.965 0 29.141-9.877 54.251-24.512 71.424s-31.403 26.837-45.141 35.883c-27.477 18.091-46.699 28.757-56.149 80.661l-45.483 250.176c-12.715 69.952-43.008 135.723-90.965 185.152-40.811 42.048-95.104 71.701-158.485 79.595v36.245c0.32 19.349-18.795 36.693-38.016 34.475zM454.869 822.997c59.861 0 106.773-22.848 143.573-60.757s62.592-91.627 73.195-149.973l45.483-250.176c12.907-71.040 56.149-106.005 85.653-125.44 14.741-9.707 25.259-16.875 30.571-23.104s8.171-11.093 8.171-27.371c0-13.184-9.557-22.741-22.741-22.741h-727.787c-13.184 0-22.741 9.557-22.741 22.741 0 16.277 2.859 21.141 8.171 27.371s15.808 13.376 30.571 23.104c29.483 19.435 72.725 54.4 85.653 125.44l45.483 250.176c10.603 58.347 36.416 112.064 73.195 149.973s83.691 60.757 143.573 60.757zM354.645 95.211h200.427c-5.76-51.477-46.976-90.965-100.203-90.965s-94.443 39.488-100.203 90.965z" />
<glyph unicode="&#xe90c;" glyph-name="binocollars" horiz-adv-x="1216" d="M532.352 659.413h153.6c0.491 5.675 0.853 11.285 1.515 16.853 4.864 42.069 21.525 78.933 50.005 110.208 31.893 35.029 71.467 56.405 118.4 62.805 57.259 7.829 108.608-7.061 153.664-43.179 21.309-16.913 38.524-38.016 50.571-62.149 6.986-14.437 11.936-28.56 17.44-42.427 42.496-107.072 85.013-214.144 127.424-321.28 10.923-27.605 14.72-56.32 12.672-85.931-3.904-57.067-23.659-107.968-59.989-152.064-40.747-49.451-92.715-81.088-155.84-92.608-80.96-14.763-154.261 3.776-218.197 55.68-49.92 40.533-80.597 93.184-92.907 156.395-2.93 14.82-4.606 31.859-4.606 49.29 0 2.022 0.023 4.038 0.067 6.049-0.005 0.319-0.069 0.959-0.112 1.834h-154.005v-5.227c0.32-54.72-14.165-105.216-44.907-150.485-41.536-61.163-98.709-99.989-171.52-113.493-80.789-14.997-154.048 3.712-217.899 55.531-50.027 40.597-80.789 93.333-93.077 156.651-2.928 13.97-4.604 30.023-4.604 46.468 0 6.501 0.262 12.94 0.776 19.308 1.652 19.6 6.986 39.12 14.559 58.17 45.973 115.669 91.776 231.403 137.728 347.072 10.389 26.155 27.243 47.915 47.957 66.667 29.013 26.261 62.891 43.2 101.611 49.045 64.619 9.749 121.28-7.808 168.811-52.736 32.469-30.677 51.584-68.736 58.432-112.853 1.216-7.765 1.643-15.637 2.453-23.616zM466.624 480.917c0 56.96 0.064 113.92-0.064 170.859 0 0.031 0 0.067 0 0.103 0 7.944-0.613 15.745-1.794 23.358-9.15 59.547-59.134 106.011-119.849 110.128-41.643 2.837-77.269-11.115-106.709-40.661-9.685-9.728-18.219-20.587-23.317-33.387-42.795-107.541-85.355-215.168-127.936-322.773-5.568-14.059-11.627-27.968-16.149-42.368-8.427-26.923-6.379-54.251 0.085-81.216 24.256-101.376 119.211-166.72 222.315-152.704 55.424 7.531 100.096 34.283 133.717 78.869 26.859 35.648 39.616 76.245 39.68 120.832 0.085 56.32 0.021 112.64 0.021 168.939zM952.235 109.803c9.771 0.853 19.605 1.152 29.269 2.688 56.427 8.896 101.461 36.629 134.656 83.072 21.184 29.632 32.725 62.933 35.904 99.157 1.941 22.016-0.64 43.349-8.832 64-42.005 105.771-83.947 211.584-125.931 317.376-5.035 12.672-9.173 25.771-15.275 37.909-26.112 51.797-86.869 80.875-143.723 69.44-62.699-12.608-106.645-66.069-106.688-130.155-0.085-113.92-0.021-227.819-0.021-341.739 0-13.696 1.237-27.264 3.989-40.683 19.319-92.367 99.954-160.792 196.621-161.067zM685.995 593.365h-153.728v-103.168h153.728v103.168zM532.16 385.109h153.899v38.080h-153.899v-38.080zM431.723 308.864c0 0 0 0 0 0 0-89.249-72.351-161.6-161.6-161.6-0.097 0-0.195 0-0.292 0-89.436 0.085-161.649 72.448-161.585 161.877s72.491 161.707 161.877 161.6c0 0 0 0 0 0 89.249 0 161.6-72.351 161.6-161.6 0-0.097 0-0.195 0-0.292zM384.192 308.885c0.021 63.104-50.987 114.283-113.984 114.368s-114.368-51.051-114.453-113.941c0-0.070 0-0.152 0-0.235 0-63.075 51.108-114.213 114.172-114.261 0.030 0 0.060 0 0.090 0 63.008 0 114.094 51.048 114.155 114.042zM948.032 147.904c-89.6 0.299-161.728 72.661-161.515 161.984 0.072 89.218 72.414 161.516 161.643 161.516 0.233 0 0.465 0 0.697-0.001 89.031-0.241 161.141-72.499 161.141-161.599 0-0.353-0.001-0.705-0.003-1.057-0.426-89.034-73.002-161.119-161.984-160.82zM948.224 195.456c0.013 0 0.028 0 0.043 0 63.033 0 114.143 51.050 114.24 114.060 0 0.016 0 0.023 0 0.031 0 63.047-51.025 114.176-114.032 114.346-0.71 0.015-1.528 0.024-2.348 0.024-63.093 0-114.24-51.147-114.24-114.24s51.147-114.24 114.24-114.24c0.73 0 1.458 0.007 2.185 0.020z" />
<glyph unicode="&#xe90d;" glyph-name="bit-ghost" horiz-adv-x="960" d="M0.512-40.96v559.616c0.171 0.384 0.384 0.747 0.469 1.131 2.539 12.075 11.328 20.48 23.509 22.037 5.909 0.747 11.904 0.96 17.856 1.408l23.019 1.685v123.669c0 18.261-0.064 36.523 0.021 54.784 0.085 15.104 11.093 26.795 25.963 27.648 6.922 0.506 21.491 1.263 36.089 1.907 7.986 0.29 8.519 0.994 8.498 3.063-0.085 12.544-0.085 25.088-0.021 37.632 0.085 16.512 11.819 28.181 28.267 28.203h41.877v3.371c0 11.861-0.064 23.723 0.043 35.584 0.021 2.965 0.299 6.016 1.067 8.832 3.349 12.181 13.931 19.861 27.157 19.861 35.669 0.021 71.317 0 106.987-0.021h3.307c0.149 1.173 0.277 2.005 0.341 2.859l2.603 41.365c0.704 11.456 8.107 21.013 18.987 24.512 1.536 0.491 3.093 0.875 4.651 1.301h282.624c0.213-0.128 0.427-0.299 0.661-0.363 14.997-3.392 22.997-13.397 22.997-28.779v-37.355h111.296c16.811 0 28.416-11.648 28.437-28.501v-41.643h38.656c16.853-0.021 28.459-11.584 28.501-28.437v-41.323h3.136c11.349 0 22.699 0.021 34.048 0 16.725-0.021 28.565-11.819 28.587-28.501v-61.952c-0.021-16.597-11.755-28.331-28.395-28.373-21.248-0.043-42.496-0.021-63.744 0-1.877 0-3.776 0.021-5.611 0.363-13.504 2.517-22.549 13.333-22.699 27.243-0.107 11.093-0.021 22.187-0.021 33.28v3.051h-80.704c-0.107-0.96-0.256-1.792-0.299-2.645-0.747-12.523-1.6-25.024-2.197-37.547-0.789-16.427-12.309-27.584-28.8-27.605h-32.768c-0.896 0-1.792-0.085-2.752-0.128v-154.389h3.115c11.691 0 23.381 0.085 35.072-0.021 16.043-0.149 27.669-11.925 27.712-27.947v-40.256h81.728v13.803c-8.405 0-16.661-0.149-24.917 0.043-6.037 0.149-12.203 0.107-18.091 1.216-12.864 2.453-21.44 13.632-21.461 27.157-0.043 30.72-0.021 61.44-0.021 92.16 0 14.165-0.128 28.331 0.064 42.496 0.145 14.806 12.181 26.752 27.007 26.752 0.023 0 0.046 0 0.069 0 45.308 0.085 90.62 0.064 135.932 0 12.495-0.090 22.973-8.617 26.027-20.163 0.32-1.234 0.661-2.28 0.981-3.325v-558.080c-0.128-0.32-0.32-0.619-0.384-0.939-3.328-14.656-13.44-22.805-28.416-22.827h-59.115c-2.389 0-4.779-0.021-7.168 0.149-12.952 1.028-23.271 11.062-24.735 23.79-0.844 8.786-1.377 17.469-2.038 26.13l-1.109 14.080h-14.144l-0.149-2.688c-0.619-12.352-1.003-24.725-1.877-37.056-1.088-15.168-12.672-25.685-27.84-25.728h-39.211v-3.413c0-12.8 0.064-25.6-0.021-38.379 0-0.033 0-0.072 0-0.111 0-12.187-8.021-22.5-19.072-25.949-1.643-0.5-3.115-0.862-4.587-1.268h-144.384c-0.384 0.149-0.768 0.363-1.173 0.448-11.627 2.347-19.968 10.475-21.995 22.080-0.62 3.762-0.974 8.098-0.974 12.516 0 0.527 0.005 1.053 0.015 1.578-0.087 32.007-0.044 64.092-0.044 96.156v2.987l-85.44 1.301v-106.88c-0.021-16.192-11.925-28.096-28.16-28.096h-138.219c-16.405 0-28.139 11.84-28.181 28.288v37.184h-42.091c-16.299 0.021-28.032 11.776-28.075 28.096v38.869h-14.421c-0.107-0.683-0.256-1.259-0.299-1.835-0.704-12.181-1.451-24.363-2.069-36.544-0.789-15.829-12.373-26.944-28.267-26.965h-38.656v-3.221c0-12.715 0.064-25.429-0.021-38.144-0.085-12.587-7.531-22.869-19.093-26.517-1.536-0.491-3.093-0.853-4.651-1.28h-75.264c-0.555 0.171-1.088 0.405-1.643 0.533-11.136 2.709-18.197 9.579-21.205 20.629l-0.704 2.389zM900.544 448.32h-15.851v-66.987c0-16.939-11.669-28.629-28.629-28.629h-134.144c-16.896 0-28.565 11.733-28.587 28.693v36.864c0 0.896-0.085 1.813-0.128 2.923h-3.029c-11.605 0-23.211-0.043-34.816 0.021-16.149 0.085-27.989 11.84-28.011 27.968-0.043 69.291-0.043 138.581 0 207.851 0 16.277 11.883 28.032 28.16 28.075h37.739l1.536 25.024c0.384 6.208 0.491 12.459 1.216 18.645 1.685 14.315 13.248 24.256 27.968 24.277 34.048 0.043 68.096 0.021 102.144 0.021h3.392v15.040h-3.008c-11.776 0-23.552-0.043-35.328 0.021-0.095-0.001-0.208-0.002-0.32-0.002-2.317 0-4.58 0.234-6.766 0.678-12.775 2.736-21.5 13.659-21.564 27.227-0.064 13.056-0.021 26.112-0.021 39.168v3.051h-3.755c-35.584 0-71.168-0.021-106.752 0.021-2.453 0-4.971 0.128-7.381 0.619-13.013 2.752-21.696 13.589-21.803 27.243-0.107 11.776-0.021 23.552-0.021 35.328v3.093h-222.144c-0.085-0.469-0.171-0.789-0.192-1.109l-2.112-36.8c-0.64-11.136-4.971-20.245-14.4-26.603-6.336-4.267-13.504-5.397-20.971-5.376l-98.816 0.085c-1.067 0-2.133-0.107-3.413-0.171v-3.051c0-11.947 0.021-23.893-0.021-35.84 0.022-0.409 0.034-0.887 0.034-1.368 0-15.046-12.197-27.243-27.243-27.243-0.14 0-0.279 0.001-0.418 0.003-13.12-0.086-26.262-0.022-39.403-0.022-0.981 0-1.963-0.085-3.115-0.149v-3.072c0-12.203 0.085-24.405-0.021-36.608-0.128-14.101-10.112-25.536-24.128-26.901-11.712-1.131-23.488-1.387-35.243-2.027-3.627-0.192-7.253-0.427-11.136-0.661v-175.275c0-1.792-0.021-3.584-0.149-5.376-0.939-12.395-10.603-22.976-22.997-24.491-8.448-1.045-17.003-1.408-25.493-2.048l-15.979-1.195v-498.88h13.013v3.2c0 12.629-0.064 25.259 0.021 37.888 0.107 16.171 11.904 27.883 28.053 27.904h40.32c0.491 8.491 0.939 16.747 1.451 25.003 0.363 5.952 0.299 11.989 1.28 17.856 2.24 13.397 13.525 22.549 27.328 22.592 21.931 0.064 43.861 0.021 65.792 0.021 17.195 0 28.864-11.733 28.864-28.992v-38.123h41.643c16.683-0.021 28.48-11.861 28.523-28.587 0.021-11.349 0-22.699 0-34.048v-2.603h85.077v106.944c0 12.843 8.192 23.808 20.459 26.688 3.985 0.883 8.563 1.388 13.258 1.388 0.604 0 1.206-0.008 1.806-0.025 30.12-0.318 60.306-0.83 90.514-1.299 12.971-0.192 25.941-0.107 38.891-0.811 10.56-0.597 18.944-5.739 24.747-14.741 4.075-6.315 5.333-13.355 5.312-20.757l-0.171-96.256v-3.221h82.901v40.32c0.043 16.96 11.733 28.629 28.651 28.651h39.659l0.192 2.304c0.597 12.096 1.173 24.192 1.813 36.288 0.853 16.192 12.203 26.987 28.416 27.008h63.488c16.277-0.021 27.627-10.965 28.587-27.2 0.683-11.755 1.685-23.488 2.624-35.221 0.064-0.683 0.875-1.835 1.365-1.877 3.733-0.149 7.445-0.085 11.264-0.085v387.712zM884.565 698.219v-9.088h10.731v9.088h-10.731zM467.285 448.512v-3.435c0-21.333 0.043-42.667-0.021-64-0.021-13.675-8.363-24.469-21.184-27.477-2.025-0.475-4.349-0.747-6.737-0.747-0.039 0-0.078 0-0.117 0-44.367-0.043-88.741-0.043-133.114-0.021-16.192 0.021-28.053 11.968-28.075 28.203v38.101h-40.896c-17.109 0.043-28.693 11.691-28.693 28.864v205.824c0 17.088 11.669 28.736 28.8 28.736h38.144c0.043 1.045 0.128 1.941 0.128 2.837v36.352c0.021 16.896 11.755 28.672 28.651 28.693h135.168c15.552 0 26.88-10.027 28.288-25.557 1.109-12.224 1.6-24.512 2.347-36.779l0.192-2.496h37.675c16.213-0.043 28.139-11.883 28.139-28.117 0.021-66.56-0.021-133.12-0.043-199.68 0-6.293-2.987-9.28-9.237-9.28h-59.413zM263.381 627.819v-154.027h3.221c12.8 0 25.6 0.064 38.4-0.021 16-0.107 27.733-11.947 27.776-27.925v-38.165h79.573v12.949h-3.221c-10.923 0-21.845-0.085-32.768 0.021-0.116-0.002-0.253-0.003-0.391-0.003-15.046 0-27.243 12.197-27.243 27.243 0 0.211 0.002 0.421 0.007 0.631-0.043 46.305-0.022 92.641 0.021 138.977 0 2.197 0.213 4.459 0.683 6.592 2.715 12.321 13.542 21.402 26.489 21.402 0.183 0 0.365-0.002 0.546-0.005 33.765 0.043 67.557 0.022 101.349 0.022h3.264v15.339h-2.88c-11.179 0-22.357-0.043-33.536 0.021-14.635 0.085-26.197 10.453-27.499 25.003-0.917 10.197-1.323 20.437-1.963 30.656-0.192 3.029-0.427 6.059-0.64 9.024h-84.331v-39.317c-0.021-16.576-11.797-28.373-28.373-28.416h-38.485z" />
<glyph unicode="&#xe90e;" glyph-name="bit-pacman" horiz-adv-x="896" d="M886.443 243.712v-146.432c-0.128-0.213-0.32-0.427-0.363-0.661-3.307-14.827-13.419-22.955-28.565-22.955h-40.64v-3.051c0-12.544 0.021-25.088-0.021-37.632 0.021-0.404 0.034-0.876 0.034-1.352 0-14.963-12.13-27.093-27.093-27.093-0.229 0-0.458 0.003-0.686 0.009l-110.473-0.022v-3.307c0-12.971 0.085-25.941-0.043-38.912-0.119-12.038-8.077-22.186-19.008-25.591-1.642-0.499-3.114-0.862-4.586-1.267h-352.768c-0.213 0.128-0.405 0.32-0.64 0.363-15.275 3.157-23.509 13.248-23.509 28.843v40.405h-111.040c-16.256 0-28.117 11.861-28.139 28.096v40.875h-3.051c-12.544 0-25.088-0.192-37.632 0.107-4.377 0.011-8.54 0.912-12.323 2.532-10.717 4.935-15.88 13.938-15.88 25.906v109.931h-2.624c-12.885 0.128-25.771 0.213-38.656 0.427-2.686 0-5.298 0.319-7.8 0.921-12.232 3.154-20.253 13.885-20.253 27.197v413.44c0 12.736 8.085 23.552 20.288 26.581 4.245 1.067 8.768 1.259 13.184 1.323 11.008 0.171 22.016 0.064 33.024 0.064h2.837v3.712c0 35.413-0.021 70.827 0 106.24 0.021 17.152 11.669 28.779 28.757 28.779h37.632c0.896 0 1.792 0.085 2.859 0.128v3.051c0 12.459-0.021 24.917 0.021 37.376-0.023 0.415-0.036 0.902-0.036 1.391 0 15.010 12.168 27.179 27.179 27.179 0.17 0 0.34-0.002 0.509-0.005 35.9 0.043 71.825 0.022 107.751 0.022h3.2v3.349c0.064 12.885 0.085 25.771 0.213 38.656 0.026 12.77 8.869 23.468 20.764 26.33 1.081 0.251 1.956 0.528 2.852 0.763h353.28c0.213-0.128 0.427-0.299 0.661-0.363 14.827-3.285 22.955-13.397 22.976-28.523v-40.512h3.435c35.563 0 71.147 0.021 106.709-0.021 16.832-0.021 28.48-11.733 28.501-28.501v-40.277h3.072c13.056 0 26.112 0.064 39.147-0.021 12.386-0.149 22.766-8.559 25.897-19.969 0.343-1.321 0.685-2.452 1.026-3.583v-146.432l-0.533-1.941c-2.773-11.435-9.813-18.773-21.312-21.291-3.733-0.811-7.787-0.32-11.691-0.32h-104.832v-40.448c-0.021-16.939-11.755-28.672-28.629-28.672h-110.272v-3.285c0-12.459 0.021-24.917-0.021-37.376 0-2.219-0.064-4.459-0.512-6.613-2.688-13.397-13.653-22.187-27.691-22.208-35.413-0.043-70.827-0.021-106.24-0.021h-3.307v-83.605h3.179c35.328 0 70.656-0.213 105.984 0.085 16.939 0.149 29.632-13.056 29.056-29.163-0.448-12.352-0.085-24.747-0.085-37.12v-3.136h3.733c35.499 0 70.997 0.021 106.496-0.021 16.683-0.021 28.416-11.755 28.459-28.309v-40.64h104.128c1.365 0 2.731 0.064 4.096 0.192 0.823 0.088 1.778 0.139 2.744 0.139 12.612 0 23.22-8.577 26.311-20.215l0.96-3.625zM623.936-9.579v3.2c0 12.288-0.021 24.576 0.021 36.864 0.021 2.283 0.128 4.629 0.597 6.869 2.773 13.205 13.781 21.909 27.669 21.931h109.931v40.491c0.043 16.875 11.819 28.608 28.715 28.629h40.619v84.075l-104.832 0.021c-2.56 0-5.12 0.021-7.659 0.299-15.424 1.6-25.515 12.821-25.536 28.352v40.363l-109.589 0.021c-2.133 0-4.288 0-6.379 0.384-13.568 2.517-22.613 13.483-22.699 27.541-0.064 12.715-0.021 25.429-0.021 38.144v3.179h-109.845c-16.555 0-28.437 11.819-28.437 28.352-0.021 45.483-0.021 90.965 0.021 136.448 0 2.283 0.213 4.629 0.704 6.848 2.681 12.327 13.499 21.424 26.442 21.424 0.192 0 0.383-0.002 0.573-0.006 35.641 0.043 71.31 0.022 106.979 0.022h3.264v3.328c0 12.459-0.021 24.917 0.021 37.376 0 2.133 0.043 4.288 0.427 6.357 2.624 13.461 13.611 22.421 27.499 22.443l110.912 0.021v3.157c0 12.8-0.043 25.6 0.021 38.4 0.085 12.523 8.277 23.253 20.395 26.197 4.096 1.003 8.448 1.28 12.672 1.301 34.048 0.107 68.096 0.064 102.144 0.064h2.923v84.075h-2.965c-12.629 0-25.259-0.043-37.888 0.021-16.213 0.064-28.053 11.989-28.096 28.203v40.661l-109.269 0.021c-2.304 0-4.651 0-6.869 0.427-13.44 2.581-22.379 13.547-22.464 27.477-0.064 12.715-0.021 25.429-0.021 38.144v3.115h-291.307v-3.072l-0.149-37.376c0-1.707 0.021-3.435-0.256-5.099-1.963-13.322-13.316-23.432-27.030-23.432-0.232 0-0.464 0.003-0.694 0.009l-110.536-0.001v-3.264c0-12.629 0.085-25.259-0.021-37.888-0.128-16.32-11.947-27.947-28.267-27.989h-38.144c-0.896 0-1.792-0.085-2.837-0.128v-25.6c0-28.331 0.043-56.661-0.021-84.992-0.043-15.232-11.029-26.987-26.219-27.541-13.291-0.491-26.603-0.32-39.915-0.448h-2.987v-360.405h2.901c12.715-0.021 25.429-0.021 38.144-0.128 2.368-0.021 4.8-0.213 7.083-0.768 12.736-3.029 20.971-13.781 20.992-27.328v-110.379h3.243c12.459 0 24.917 0.043 37.376-0.021 16.619-0.064 28.309-11.819 28.331-28.437v-40.448h110.208c17.237 0 28.928-11.669 28.949-28.907v-40.512h291.136zM285.397 678.933h61.184c14.72 0 24.747-10.027 24.747-24.747v-122.603c0-14.507-10.133-24.64-24.64-24.64h-122.859c-14.336 0-24.469 10.155-24.469 24.512v123.115c0 14.208 10.155 24.32 24.363 24.341h61.696z" />
<glyph unicode="&#xe90f;" glyph-name="book" d="M207.765 960h608.555c8.448-1.856 17.067-3.093 25.301-5.632 52.395-16.149 86.933-63.659 86.933-119.381 0.043-182.165 0.021-364.309 0.021-546.475 0-46.933-0.021-93.867 0.021-140.8 0.021-17.621-2.88-34.752-10.539-50.645-23.083-48-61.376-73.28-114.773-73.621-82.048-0.512-164.117-0.128-246.165-0.128h-6.507v-6.165c0-16.256 0.107-32.491-0.085-48.747 0.001-0.123 0.002-0.267 0.002-0.412 0-4.159-0.664-8.163-1.892-11.912-6.494-18.524-28.062-25.842-45.641-15.218-81.906 47.941-110.124 65.409-138.265 82.987 49.028-28.459 47.108-28.48 44.356-30.165-28.096-17.216-56.299-34.283-84.437-51.435-10.709-6.528-21.696-7.424-32.619-1.152-10.709 6.144-15.68 15.808-15.573 28.224 0.128 16.085 0.021 32.171 0.021 48.256v5.717h-5.995c-16.747 0-33.472 0.064-50.219-0.021-0.427-0.005-0.931-0.008-1.435-0.008-13.325 0-26.157 2.11-38.18 6.014-51.115 16.523-85.121 63.52-85.142 118.901-0.043 187.413-0.021 374.827-0.021 562.24 0 42.837-0.256 85.675 0.107 128.491 0.427 51.371 34.368 97.899 83.136 114.155 9.408 3.136 19.328 4.651 29.035 6.912zM323.733 337.749h5.163c160.341 0 320.661-0.021 481.003 0.021 32.96 0 56.768 23.829 56.768 56.853 0.043 146.709 0.021 293.44-0.021 440.149 0 3.755-0.021 7.595-0.683 11.285-5.461 31.317-30.123 52.096-62.059 52.096-158.357 0.043-316.736 0.021-475.093 0.021h-5.099v-560.405zM261.397 337.749v560.405c-13.909 0-27.52 0.043-41.109 0-36.224-0.128-62.891-26.603-62.891-62.72-0.043-168.683-0.021-337.365-0.021-506.048 0-1.536 0.171-3.051 0.277-5.035l4.971 2.304c11.221 5.205 22.891 9.472 35.264 10.048 19.157 0.875 38.357 0.768 57.536 1.067h5.973zM276.245 149.333c-6.293 0-12.053-0.427-17.707 0.085-11.776 1.088-20.267 7.403-24.981 18.133s-3.541 21.227 3.435 30.72c6.869 9.365 16.512 12.565 27.925 12.565 180.352-0.107 360.704-0.064 541.035-0.064 2.304 0 4.587-0.021 6.891 0.021 24.491 0.597 46.293 16.917 51.669 40.832 2.709 12.075 2.112 24.875 3.051 38.187-2.069-0.747-2.688-0.896-3.243-1.173-18.56-9.429-38.315-12.715-59.008-12.693-195.605 0.128-391.211 0.064-586.837 0.064-3.435 0-6.891 0-10.325-0.213-27.328-1.664-50.176-24.853-50.624-52.224-0.448-26.731-0.469-53.504 0.021-80.235 0.555-29.44 25.088-55.765 54.485-57.621 20.757-1.323 41.643-0.533 62.485-0.64 0.576 0 1.152 0.448 1.728 0.661v63.637zM866.539 162.304c-0.917-0.256-1.557-0.341-2.091-0.619-18.688-9.536-38.613-12.8-59.456-12.757-82.517 0.192-165.035 0.085-247.531 0.085h-6.528v-63.744c1.557-0.128 2.987-0.32 4.416-0.32 83.008-0.021 166.016-0.085 249.024 0.043 26.219 0.043 48.213 14.955 57.941 38.336 5.227 12.544 4.565 25.579 4.267 38.976zM488.576 22.101v126.507h-149.952v-125.419c2.112 1.237 3.669 2.112 5.184 3.051 17.088 10.368 34.219 20.693 51.221 31.168 11.947 7.36 23.68 7.36 35.627-0.021 17.579-10.837 35.243-21.525 52.864-32.256l5.056-3.029z" />
<glyph unicode="&#xe910;" glyph-name="bookmark" d="M767.275 958.571h-510.571c-84.586-0.024-153.149-68.588-153.173-153.171v-816.898c0-19.136 10.539-36.693 27.755-45.312 16.917-8.619 37.333-7.339 52.971 3.819l327.723 233.899 327.723-233.899c8.205-5.973 18.485-9.557 29.602-9.557 8.54 0 16.587 2.115 23.644 5.849 16.31 8.49 27.45 25.53 27.479 45.175v816.9c-0.024 84.586-68.588 153.149-153.171 153.173zM818.347 87.723l-276.672 197.525c-8.22 6.006-18.526 9.609-29.675 9.609s-21.455-3.604-29.818-9.709l-276.528-197.425v717.653c0.085 28.16 22.89 50.966 51.043 51.051h510.579c28.16-0.085 50.966-22.89 51.051-51.043v-717.661z" />
<glyph unicode="&#xe911;" glyph-name="bot" horiz-adv-x="1294" d="M756.485 954.451c6.040-1.688 12.476-2.544 18.046-5.21 20.816-9.97 31.724-27.062 33.025-49.933 0.674-11.73 0.118-23.528 0.118-35.296l1.002-0.265c0.91 0.615 1.837 1.211 2.729 1.851 15.222 10.906 29.821 22.719 46.408 31.605 11.322 6.067 22.871 11.689 35.481 14.592 17.791 4.096 34.319-2.386 42.845-16.612 5.998-10 6.537-20.93 5.156-32.095-1.778-14.343-7.741-26.982-16.174-38.557-1.356-1.862-2.704-3.732-4.245-5.863 3.875-0.199 7.489-0.19 11.061-0.595 23.646-2.69 38.253-22.554 34.108-45.973-2.165-12.249-6.84-23.57-12.055-34.74-0.261-0.573-0.48-1.162-0.733-1.761 0.168-0.261 0.278-0.598 0.513-0.775 20.79-15.922 34.597-37.083 45.363-60.509 11.878-25.845 19.434-53.054 25.239-80.793 6.672-31.859 10.799-64.090 13.402-96.522 0.396-4.928 0.952-9.856 1.112-14.793 0.084-2.426 0.867-3.243 3.26-3.369 14.085-0.775 28.161-1.701 42.244-2.561 21.54-1.315 43.080-2.578 64.615-3.976 2.367-0.151 3.44 0.463 4.389 2.721 11.979 28.566 40.578 45.456 70.090 42.532 32.781-3.251 57.375-26.14 62.965-57.553 7.060-39.635-21.633-77.29-61.874-81.207-30.722-2.999-59.309 14.051-71.242 42.625-0.893 2.14-1.862 2.721-4.145 2.569-35.195-2.24-70.395-4.38-105.594-6.545-0.412-0.026-0.817-0.101-1.559-0.202-0.050-1.019-0.16-2.022-0.143-3.018 0.775-46.559-0.559-93.067-3.732-139.518-2.915-42.743-7.245-85.343-14.464-127.6-3.766-22.081-7.969-44.076-16.014-65.126-18.739-49.011-52.509-83.746-100.017-105.433-25.824-11.794-53.016-19-80.954-23.406-61.43-9.682-123.329-12.173-185.412-11.409-44.141 0.539-88.151 3.193-131.928 8.993-38.845 5.147-77.217 12.544-114.267 25.718-17.286 6.15-33.797 13.874-49.584 23.301-19.168 11.44-33.502 27.117-43.96 46.738-12.712 23.847-21.157 49.204-27.572 75.31-8.349 33.982-13.303 68.529-16.662 103.328-5.973 61.933-6.983 123.996-5.088 186.144 0.059 1.887 0.009 3.774 0.009 5.981-3.108 0.25-6.217 0.548-9.325 0.741-32.567 1.996-65.142 3.951-97.71 6.032-2.216 0.143-3.108-0.489-3.912-2.451-11.372-27.668-39.137-45.27-68.959-42.937-31.961 2.502-56.424 23.777-63.516 54.259-9.327 40.090 19.207 80.156 60.198 84.514 31.265 3.328 59.967-13.526 72.18-42.52 0.91-2.156 1.971-2.712 4.195-2.569 29.939 1.929 59.877 3.766 89.825 5.618 5.038 0.312 10.086 0.565 15.129 0.867 1.66 0.101 3.311 0.283 5.099 0.438 0.867 10.597 1.609 20.981 2.586 31.342 3.993 42.322 8.196 84.653 18.979 125.922 9.123 34.917 25.807 65.667 52.707 90.305 4.721 4.322 9.789 8.263 14.823 12.486-2.844 5.757-5.817 11.533-8.567 17.412-4.507 9.63-7.506 19.564-6.68 30.446 1.196 15.745 12.129 30.601 27.033 35.675 8.356 2.843 16.78 2.343 25.053-0.707 1.048-0.388 2.098-0.783 2.637-0.985-0.118 7.484-0.733 14.927-0.261 22.299 1.331 20.714 17.421 36.579 38.088 38.452 17.114 1.55 31.918-4.044 45.245-14.202 8.871-6.759 17.48-13.868 26.201-20.824 0.8-0.636 1.6-1.28 2.772-2.22 0.076 1.483 0.151 2.586 0.185 3.682 0.412 13.787 0.548 27.584 1.306 41.345 0.775 14.010 5.163 26.675 16.286 36.055 13.917 11.734 29.829 13.672 46.879 8.795 11.71-3.352 21.725-9.78 29.989-18.575 17.008-18.103 33.687-36.518 50.502-54.807 0.425-0.463 0.823-0.952 1.516-1.757 0.8 0.927 1.533 1.735 2.224 2.586 16.629 20.395 32.995 41.017 49.976 61.115 10.85 12.816 23.847 23.185 40.176 28.473 4.262 1.382 8.78 1.963 13.184 2.908h8.213zM309.865 384.478c-0.229-64.968 1.014-114.211 7.469-169.589 3.438-29.494 8.263-58.737 16.552-87.305 4.933-17.005 10.749-33.706 20.754-48.517 2.535-3.752 5.827-7.245 9.438-9.974 16.308-12.335 34.965-20.049 54.223-26.352 44.37-14.518 90.233-21.25 136.54-25.098 25.057-2.081 50.212-3.409 75.349-4.079 64.191-1.71 128.2 0.758 191.714 10.96 22.906 3.682 45.191 9.772 66.373 19.501 38.796 17.825 63.544 46.98 72.626 89.1 6.487 30.074 10.749 60.475 14.051 91.021 4.549 41.993 7.236 84.114 8.163 126.333 1.255 57.097 0.11 114.11-6.68 170.897-3.1 25.929-7.304 51.647-14.026 76.903-4.954 18.642-11.094 36.838-20.79 53.652-5.981 10.378-13.663 19.147-23.756 25.744-10.632 6.941-22.071 12.198-33.974 16.485-30.663 11.044-62.523 16.713-94.71 20.749-35.439 4.448-71.073 6.435-106.773 6.967-72.092 1.061-143.966-2.207-215.4-12.551-21.372-3.091-42.423-7.623-62.574-15.685-23.941-9.578-44.201-23.78-57.94-46.18-9.906-16.14-14.902-33.974-18.339-52.38-6.975-37.394-10.875-75.167-13.739-113.050-2.915-38.54-4.415-77.147-4.516-97.508zM895.576 501.844c-0.651-32.739-10.53-62.009-33.086-86.303-12.928-13.922-28.446-23.665-47.553-26.602-22.057-3.39-41.508 2.704-58.222 17.248-17.488 15.222-27.141 34.993-30.921 57.485-6.354 37.832 1.852 72.328 25.619 102.722 8.735 11.171 19.561 19.965 32.373 26.19 3.759 1.828 6.366 4.717 8.3 8.349 6.672 12.527 13.349 25.053 20.097 37.537 1.090 2.022 2.398 3.968 3.886 5.703 1.752 2.047 3.797 1.761 5.284-0.362 1.138-1.617 2.013-3.445 2.78-5.273 5.324-12.695 10.438-25.483 15.98-38.076 1.196-2.704 3.395-5.644 5.913-6.991 23.672-12.644 37.546-32.769 44.951-57.915 3.235-10.96 4.624-22.223 4.6-33.679zM575.286 479.841c-0.265-20.77-6.823-44.391-23.237-64.607-11.69-14.405-26.456-24.008-45.115-26.569-18.134-2.485-34.948 1.811-50.367 11.364-23.304 14.439-38.195 35.533-46.51 61.268-9.966 30.84-9.671 61.512 3.85 91.409 7.952 17.58 20.218 31.295 37.47 40.469 2.62 1.39 4.971 4.372 6.174 7.161 5.45 12.636 10.404 25.483 15.627 38.219 1.129 2.738 1.778 6.571 5.366 6.706 3.488 0.127 4.684-3.521 6.124-6.124 6.967-12.611 13.866-25.255 20.697-37.933 2.233-4.136 5.366-7.034 9.595-9.182 23.924-12.147 39.609-31.784 49.963-56.019 6.983-16.351 10.378-33.494 10.387-56.187zM582.761 265.335c0 18.109-0.026 36.218 0.029 54.326 0.009 2.617 0.194 5.273 0.674 7.841 0.623 3.347 2.738 5.056 6.166 5.282 2.518 0.165 5.055 0.137 7.582 0.139 35.481 0.034 70.964 0.059 106.444 0.076 10.328 0 12.417-1.979 11.802-12.215-1.5-24.901-3.184-49.786-4.827-74.679-0.851-12.922-1.66-25.845-2.688-38.742-0.505-6.327-3.050-8.61-9.351-8.626-35.802-0.101-71.596-0.16-107.396-0.16-6.697-0.009-9.157 2.62-9.166 9.578-0.034 19.055-0.009 38.11-0.009 57.164h0.775zM643.61 183.44c17.16 0 34.322 0.011 51.483-0.003 9.337-0.009 11.33-2.233 10.695-11.507-1.432-21.001-2.83-42.006-4.204-63.012-0.489-7.434-2.477-9.66-9.865-9.679-33.797-0.082-67.594-0.082-101.391 0-6.967 0.019-9.325 2.453-9.291 9.451 0.11 21.793 0.354 43.586 0.582 65.379 0.017 1.463 0.252 2.942 0.548 4.38 0.548 2.656 2.199 4.278 4.928 4.59 1.778 0.202 3.572 0.31 5.357 0.312 17.058 0.023 34.117 0.014 51.167 0.014v0.076z" />
<glyph unicode="&#xe912;" glyph-name="box" d="M918.443 772.288l-346.603 173.291c-0.277 0.277-0.533 0.277-0.811 0.533-18.219 9.259-38.635 13.867-59.029 13.867s-40.533-4.907-58.219-13.611l-348.779-174.379c-42.921-21.735-71.83-65.517-71.83-116.052 0-0.136 0-0.271 0.001-0.407v-414.848c0-49.237 27.477-93.867 71.552-116.437 0 0 0.277 0 0.277-0.277l347.691-173.845c18.219-9.259 38.635-14.144 59.029-14.144s40.811 4.907 58.496 13.867l348.779 174.379c42.875 21.972 71.731 65.823 71.829 116.424v414.883c0 49.515-27.755 94.123-72.363 116.715zM492.949 868.587c3.797 1.899 10.347 4.352 19.051 4.352 6.528 0 12.779-1.365 18.496-4.075 0.277 0 0.533-0.277 0.811-0.277l318.293-159.147-337.621-168.939-337.621 168.939 318.571 159.147zM144.192 201.515c-14.309 7.303-23.936 21.933-23.936 38.812 0 0.035 0 0.070 0 0.105v398.544l348.224-174.101v-425.493l-324.288 162.133zM880.085 201.792l-324.565-162.133v425.216l348.224 174.123v-398.293c0-16.597-9.259-31.552-23.659-38.912z" />
<glyph unicode="&#xe913;" glyph-name="calendar" d="M933.867-29.888h-843.648c-1.28 0.32-2.56 0.811-3.861 0.96-49.067 5.675-86.208 46.379-86.208 95.573-0.128 232.107-0.149 464.192 0 696.299 0.021 52.608 43.136 95.595 95.68 95.893 45.632 0.277 91.285 0.107 136.939 0.064 9.088 0 13.376-4.352 13.44-13.504 0.064-11.925 0.043-23.872 0-35.84 0-12.309-3.499-15.851-15.701-15.851h-130.027c-21.696 0-34.091-12.352-34.091-34.027-0.043-50.837 0-101.696 0-152.555 0-2.048 0.149-4.096 0.277-6.443h890.304c0.192 1.6 0.491 2.901 0.491 4.203 0.043 52.949 0 105.92 0 158.912 0 7.403-2.176 14.059-6.869 19.755-6.741 8.149-15.659 11.285-26.048 11.285-44.096-0.064-88.235-0.043-132.331 0-10.432 0-14.379 3.925-14.379 14.251-0.043 12.523-0.043 25.024 0 37.568 0.043 9.131 4.331 13.376 13.504 13.376 45.653 0.043 91.307 0.192 136.939-0.064 43.221-0.235 81.429-30.229 92.331-72.107 1.344-5.184 2.283-10.453 3.392-15.68v-714.24c-0.363-1.28-0.875-2.539-1.067-3.84-5.553-39.378-34.157-70.814-71.521-80.471-6.239-1.555-11.935-2.409-17.567-3.539zM66.624 533.717c-0.107-2.219-0.256-3.904-0.256-5.589 0-151.957-0.043-303.936 0-455.915 0-20.608 12.544-33.109 33.131-33.109 275.243-0.043 550.464-0.043 825.685 0.043 3.605 0 7.403 0.128 10.837 1.067 14.571 3.861 22.507 15.573 22.507 32.832v460.693h-891.925zM305.152 923.584c3.243-1.088 6.635-1.92 9.707-3.349 12.928-6.037 19.925-16.512 20.011-30.592 0.143-23.589 0.224-51.497 0.224-79.424s-0.081-55.835-0.244-83.723c0.020 4.284 0.020 4.265 0.020 4.247 0-18.284-14.594-33.158-32.769-33.611-17.962-0.491-32.618 12.757-34.581 31.274-0.256 2.475-0.235 4.992-0.235 7.488v144.981c0 25.92 5.76 34.197 29.739 42.688h8.107zM726.976 923.584c2.539-0.832 5.099-1.536 7.573-2.453 13.952-5.184 21.952-17.643 21.995-34.56 0.064-48.128 0.043-96.256 0-144.405 0-4.608 0.128-9.237-0.299-13.845-1.664-18.347-16.555-31.68-34.539-31.168-17.984 0.606-32.374 15.167-32.704 33.163-0.363 14.837-0.107 29.685-0.107 44.512v106.283c0 25.813 5.952 34.304 29.952 42.496h8.107zM511.893 794.816h-139.797c-12.587 0-16 3.499-16 16.171 0 11.733-0.043 23.488 0 35.243 0.043 9.515 4.331 13.781 13.76 13.781 94.763 0.043 189.461 0.043 284.224 0 9.408 0 13.653-4.309 13.717-13.845 0.064-12.309 0.064-24.64 0-36.949-0.043-10.283-4.053-14.336-14.4-14.336-47.168-0.043-94.357 0-141.525-0.043zM625.856 391.637c-6.336 0-12.693-0.107-19.029 0.043-8.256 0.149-13.184 4.587-13.355 12.672-0.143 5.84-0.224 12.719-0.224 19.616s0.081 13.776 0.243 20.635c0.13 7.237 5.293 11.909 13.741 11.973 5.572 0.056 12.158 0.088 18.752 0.088s13.178-0.032 19.755-0.096c7.594-0.099 12.586-4.942 12.714-13.667 0.192-12.48 0.171-24.981 0-37.504-0.128-9.088-4.885-13.611-14.101-13.717-6.144-0.107-12.331 0-18.475 0zM626.197 328.491c6.336 0 12.715 0.107 19.029-0.043 7.808-0.171 12.928-4.651 13.099-12.352 0.32-13.248 0.32-26.539 0.043-39.808-0.171-7.957-5.355-12.587-13.44-12.651-12.693-0.107-25.365-0.107-38.080 0-8.128 0.064-13.205 4.672-13.376 12.715-0.14 5.663-0.219 12.332-0.219 19.019 0 7.31 0.095 14.598 0.284 21.863 0.17 6.67 5.247 11.129 13.055 11.257 6.528 0.128 13.077 0.043 19.605 0.043zM625.664 200.597c6.528 0 13.077 0.171 19.605-0.043 8.107-0.256 12.971-4.885 13.12-12.992 0.256-12.864 0.235-25.771 0-38.635-0.149-8.32-5.163-13.184-13.504-13.269-12.672-0.171-25.365-0.192-38.059 0-8.363 0.128-13.248 4.971-13.376 13.419-0.112 5.659-0.176 12.331-0.176 19.019s0.064 13.359 0.191 20.016c0.113 7.813 4.87 12.272 13.766 12.464 6.144 0.128 12.288 0.043 18.475 0.043zM544.427 167.957c0-6.336 0.107-12.715-0.043-19.029-0.128-8-4.864-13.12-12.843-13.291-13.056-0.235-26.133-0.256-39.232 0-7.936 0.171-12.672 5.291-12.736 13.355-0.056 5.745-0.088 12.533-0.088 19.328 0 6.797 0.032 13.586 0.096 20.367 0.056 6.769 4.707 11.675 12.515 11.825 5.922 0.122 12.905 0.192 19.904 0.192s13.98-0.070 20.945-0.208c6.703-0.133 11.289-5.146 11.439-12.912 0.128-6.528 0.043-13.099 0.043-19.605zM430.464 296.043c0-6.144 0.107-12.331-0.043-18.475-0.192-9.237-4.8-13.845-13.888-13.909-12.331-0.064-24.619-0.064-36.928 0-9.28 0.064-14.080 4.907-14.144 14.336-0.051 5.4-0.080 11.785-0.080 18.176 0 6.39 0.029 12.773 0.087 19.149 0.057 8.477 4.857 13.149 14.286 13.171 12.331 0.064 24.619 0.064 36.928 0 8.896-0.064 13.44-4.587 13.76-13.419v-19.029zM854.101 263.637c-6.528 0-13.077-0.107-19.605 0.043-8.064 0.171-12.928 4.864-13.013 12.971-0.087 5.833-0.136 12.719-0.136 19.616s0.049 13.782 0.148 20.655c0.116 6.769 4.916 11.505 12.724 11.569 5.83 0.061 12.719 0.096 19.616 0.096s13.786-0.035 20.666-0.104c6.608-0.098 11.686-4.962 11.814-12.6 0.102-5.836 0.16-12.719 0.16-19.616s-0.058-13.782-0.174-20.652c-0.114-6.922-5.17-11.764-13.149-11.935-6.336-0.128-12.693-0.043-19.029-0.043zM202.496 167.872c0-6.336 0.107-12.715-0.043-19.029-0.171-7.808-4.672-12.992-12.288-13.163-13.44-0.299-26.923-0.32-40.384 0.043-7.296 0.192-12.032 5.419-12.117 12.8-0.082 5.833-0.128 12.719-0.128 19.616s0.046 13.785 0.139 20.66c0.096 6.636 4.917 11.585 12.661 11.734 6.225 0.116 13.567 0.182 20.924 0.182 6.437 0 12.863-0.051 19.276-0.151 7.267-0.116 11.768-4.852 11.96-13.044 0.128-6.528 0.043-13.099 0.043-19.605zM479.552 423.701c0 6.528-0.107 13.077 0.043 19.605 0.128 8 4.928 13.099 12.907 13.184 5.834 0.092 12.719 0.144 19.616 0.144s13.782-0.052 20.655-0.156c6.577-0.116 11.569-5.214 11.633-12.83 0.171-13.099 0.128-26.155 0-39.232-0.107-7.744-4.864-12.651-12.608-12.779-13.269-0.192-26.539-0.192-39.808 0-7.467 0.107-12.16 4.971-12.352 12.395-0.171 6.528-0.043 13.077-0.043 19.605zM853.419 391.637c-6.336 0-12.715-0.128-19.029 0.043-8.192 0.192-12.843 4.779-12.928 12.992-0.082 5.747-0.128 12.532-0.128 19.328s0.046 13.58 0.139 20.353c0.096 7.359 4.981 12.095 13.429 12.202 5.658 0.061 12.345 0.096 19.040 0.096s13.379-0.035 20.056-0.104c7.218-0.098 12.232-5.154 12.338-13.41 0.171-12.672 0.171-25.365 0-38.080-0.107-8.427-4.928-13.184-13.291-13.376-6.528-0.128-13.077-0.043-19.605-0.043zM170.411 328.491c6.528 0 13.077 0.128 19.605-0.043 7.467-0.192 12.331-4.907 12.416-12.331 0.192-13.461 0.192-26.923-0.043-40.384 0.002-0.078 0.003-0.17 0.003-0.262 0-6.504-5.272-11.776-11.776-11.776-0.129 0-0.257 0.002-0.384 0.006-13.421-0.192-26.904-0.192-40.365 0-0.083-0.002-0.18-0.003-0.278-0.003-6.598 0-11.947 5.349-11.947 11.947 0 0.046 0 0.092 0.001 0.138-0.256 13.433-0.213 26.916-0.043 40.377 0.128 7.296 5.227 12.139 12.544 12.331 6.72 0.171 13.461 0.043 20.203 0.043zM283.584 263.637c-6.336 0-12.693-0.128-19.051 0.043-7.744 0.171-12.693 4.907-12.8 12.587-0.092 5.92-0.144 12.906-0.144 19.904s0.052 13.984 0.156 20.958c0.094 6.434 4.916 11.234 12.34 11.341 5.917 0.071 12.906 0.112 19.904 0.112s13.987-0.041 20.966-0.122c6.255-0.097 11.418-4.918 11.546-12.214 0.256-13.44 0.256-26.901 0-40.384-0.171-7.253-5.333-12.011-12.736-12.16-6.72-0.149-13.461-0.043-20.203-0.043zM511.488 263.637c-6.144 0-12.331-0.064-18.453 0-8.491 0.128-13.376 4.843-13.44 13.163-0.061 5.744-0.096 12.532-0.096 19.328s0.035 13.582 0.104 20.361c0.056 7.074 4.856 11.895 12.962 11.959 5.744 0.061 12.532 0.096 19.328 0.096s13.582-0.035 20.361-0.104c7.394-0.056 12.087-4.898 12.151-13.368 0.107-12.693 0.107-25.365 0-38.080-0.064-8.384-4.928-13.205-13.269-13.355-6.528-0.085-13.099-0.043-19.605-0.043zM740.288 328.491c6.336 0 12.693 0.107 19.029-0.043 8.064-0.171 12.8-4.907 12.885-13.056 0.128-12.907 0.128-25.771 0-38.656-0.064-8.107-4.928-13.035-12.885-13.099-12.885-0.128-25.771-0.128-38.656 0-8.32 0.064-13.227 5.035-13.269 13.376-0.061 5.658-0.096 12.345-0.096 19.040s0.035 13.379 0.104 20.056c0.056 7.41 4.92 12.189 13.261 12.338 6.528 0.107 13.077 0.043 19.605 0.043zM284.203 200.597c6.144 0 12.331 0.107 18.475-0.043 9.195-0.192 13.888-4.864 13.952-13.952 0.051-5.487 0.080-11.972 0.080-18.464s-0.029-12.977-0.087-19.455c-0.057-7.99-4.942-13.025-13.881-13.11-12.48-0.128-25.003-0.171-37.504 0-8.704 0.107-13.44 4.971-13.504 13.76-0.056 5.572-0.088 12.158-0.088 18.752s0.032 13.178 0.096 19.755c0.056 7.957 4.536 12.501 13.432 12.693 6.336 0.171 12.672 0.043 19.051 0.043zM707.349 423.701c0 6.528-0.107 13.077 0.043 19.605 0.149 7.957 5.056 13.099 12.971 13.184 5.834 0.092 12.719 0.144 19.616 0.144s13.782-0.052 20.655-0.156c6.599-0.116 11.505-5.15 11.591-12.788 0.082-5.833 0.128-12.719 0.128-19.616s-0.046-13.785-0.139-20.66c-0.096-6.785-4.768-11.606-12.533-11.734-13.077-0.192-26.133-0.171-39.232 0-8.064 0.107-12.864 4.992-13.013 12.992-0.128 6.336-0.043 12.693-0.043 19.029zM398.123 200.597c6.336 0 12.715 0.128 19.051-0.043 8.576-0.235 13.141-4.736 13.248-13.355 0.192-12.672 0.192-25.365 0-38.037-0.128-8.747-4.949-13.44-13.76-13.547-12.48-0.128-25.003-0.149-37.461 0-8.597 0.107-13.568 5.12-13.653 13.739-0.071 5.568-0.112 12.145-0.112 18.731s0.041 13.162 0.122 19.729c0.097 7.77 4.854 12.421 13.601 12.762h19.029z" />
<glyph unicode="&#xe914;" glyph-name="camera" horiz-adv-x="1259" d="M465.451 960h338.069c14.379-3.157 22.869-12.757 29.931-25.131 25.6-44.757 51.819-89.152 77.653-133.76 1.963-3.392 4.053-4.651 8.021-4.651 64.512 0.128 129.024 0.363 193.536 0 71.957-0.405 134.251-49.835 151.552-119.765 2.069-8.341 3.2-16.896 4.779-25.365v-569.323c-1.131-6.869-1.941-13.824-3.435-20.629-16.384-74.368-79.872-125.376-156.075-125.376-316.651-0.021-633.301-0.021-949.952 0.021-5.547 0-11.093 0.299-16.619 0.811-64.469 5.803-119.872 52.032-136.939 114.603-2.731 9.984-4.011 20.373-5.973 30.571v569.323c1.792 9.408 3.008 18.987 5.483 28.203 18.423 67.797 79.37 116.855 151.795 116.971 64.035 0.277 128.056 0.107 192.056-0.043 4.352-0.021 6.613 1.344 8.768 5.077 26.731 46.165 53.696 92.203 80.448 138.347 5.824 10.048 13.867 16.704 25.237 19.243 0.597 0.128 1.109 0.576 1.664 0.875zM634.517 7.189c157.44 0 314.88-0.021 472.32 0.085 7.467 0 15.104 0.341 22.379 1.92 41.728 9.067 68.544 43.157 68.544 87.019 0.064 180.139 0.064 360.277-0.085 540.416 0 8.085-0.811 16.405-2.816 24.213-9.92 38.933-43.989 64.683-85.269 64.725-71.040 0.107-142.080 0.149-213.12-0.064-16.341-0.043-27.925 6.656-36.075 20.715-26.752 46.165-53.803 92.139-80.576 138.283-1.899 3.264-3.925 4.395-7.68 4.395-91.776-0.107-183.573-0.107-275.349 0-3.797 0-5.76-1.216-7.637-4.459-26.56-45.717-53.419-91.221-79.808-137.045-8.704-15.125-20.843-22.037-38.379-21.952-70.229 0.341-140.459 0.128-210.688 0.149-20.757 0-39.723-5.504-56.021-18.56-22.805-18.283-33.131-42.347-33.109-71.467 0.107-179.477 0.064-358.976 0.064-538.453 0-2.603 0.043-5.227 0.171-7.829 0.768-17.109 6.080-32.725 16.277-46.4 18.176-24.384 42.773-35.733 73.088-35.712 157.931 0.085 315.861 0.043 473.771 0.043zM634.624 44.843c-177.301-0.107-321.813 144.448-321.536 321.6 0.299 177.536 143.893 321.131 321.259 321.237 177.472 0.107 321.707-144.107 321.515-321.472s-144.043-321.259-321.259-321.365zM634.603 616.661c-137.877 0.192-250.091-111.595-250.432-249.472-0.001-0.317-0.002-0.692-0.002-1.067 0-138.074 111.931-250.005 250.005-250.005 0.061 0 0.122 0 0.182 0 0.117 0 0.267 0 0.417 0 138.014 0 249.908 111.834 250.005 249.826 0.192 138.441-111.659 250.527-250.197 250.719zM1104.597 595.819c0.107-31.872-25.536-57.771-57.323-57.877s-57.643 25.621-57.728 57.472c0 0.060 0 0.131 0 0.203 0 31.771 25.755 57.526 57.526 57.526 31.699 0 57.41-25.64 57.525-57.312zM819.819 366.272c-0.021-102.123-83.328-185.344-185.515-185.28-102.101 0.064-185.429 83.584-185.173 185.6 0.256 102.293 83.477 185.131 185.749 184.917 102.059-0.213 184.96-83.264 184.939-185.259zM634.453 252.245c0.108 0 0.235-0.001 0.363-0.001 62.809 0 113.738 50.869 113.835 113.655 0 0.095 0 0.196 0 0.297 0 63.052-51.114 114.166-114.166 114.166-62.951 0-114.002-50.95-114.165-113.862 0-0.136-0.001-0.279-0.001-0.421 0-62.869 50.966-113.835 113.835-113.835 0.098 0 0.195 0 0.293 0z" />
<glyph unicode="&#xe915;" glyph-name="cancel" d="M512 903.104c-251.371 0-455.104-203.755-455.104-455.104s203.755-455.104 455.104-455.104 455.104 203.755 455.104 455.104-203.755 455.104-455.104 455.104zM170.667 448c0 73.643 23.659 141.696 63.467 197.525l475.392-475.392c-54.804-39.678-123.374-63.467-197.5-63.467-0.009 0-0.018 0-0.027 0-188.223 0-341.332 153.109-341.332 341.333zM789.867 250.475l-475.392 475.392c54.804 39.678 123.374 63.467 197.5 63.467 0.009 0 0.018 0 0.027 0 188.223 0 341.332-153.109 341.332-341.333 0-73.643-23.659-141.696-63.467-197.525z" />
<glyph unicode="&#xe916;" glyph-name="cart" horiz-adv-x="1131" d="M158.4 959.445c1.963-0.469 3.947-0.832 5.845-1.429 12.224-3.797 20.203-11.861 23.467-24.235 14.805-56.256 29.504-112.533 44.245-168.789 3.819-14.592 7.701-29.184 11.435-43.819 0.491-1.92 1.216-2.688 3.136-2.411 0.725 0.107 1.472 0.021 2.219 0.021l836.629 0.021c11.947 0 21.888-4.096 28.992-13.803 7.083-9.664 8.469-20.416 4.523-31.744l-31.851-91.221-81.685-233.493c-5.483-15.68-17.429-24.128-34.176-24.128h-623.595c0.064-0.768 0.043-1.387 0.192-1.941 7.019-26.795 14.059-53.589 21.013-80.405 0.469-1.813 1.131-2.581 3.136-2.475 3.776 0.171 7.552 0.043 11.328 0.043h541.803c14.955 0 26.24-6.379 32.533-20.075 9.963-21.675-5.504-46.4-29.333-47.424-1.069-0.041-2.324-0.064-3.584-0.064-193.045 0-386.091 0.021-579.136-0.043-12.757 0-23.061 4.501-30.165 15.189-2.075 3.173-3.723 6.856-4.743 10.792-41.209 157.016-82.254 313.795-123.321 470.595l-57.707 220.352-0.811 2.88h-3.307c-30.144 0-60.288-0.043-90.432 0.021-16.512 0.043-29.867 10.731-33.344 26.475-0.506 2.189-0.797 4.702-0.797 7.283 0 16.845 12.364 30.802 28.512 33.291 0.7 0.109 1.212 0.365 1.703 0.536h127.232zM1039.573 651.093h-777.707l0.448-2.027c22.229-84.928 44.459-169.856 66.645-254.805 0.512-1.92 1.365-2.368 3.221-2.347 12.267 0.085 24.512 0.043 36.779 0.043 192.213 0 384.405 0 576.619-0.064 2.645 0 3.733 0.789 4.608 3.285 29.419 84.373 58.923 168.704 88.405 253.035l0.981 2.88zM886.827 44.651c0.013-0.626 0.021-1.364 0.021-2.103 0-57.433-45.437-104.254-102.325-106.477-1.295-0.046-2.58-0.069-3.869-0.069-58.139 0-105.403 46.56-106.539 104.426-1.196 57.855 45.737 106.965 103.337 108.117 59.413 1.195 108.16-45.141 109.376-103.915zM780.672 81.045c-0.434 0.017-0.943 0.027-1.454 0.027-21.408 0-38.763-17.355-38.763-38.763s17.355-38.763 38.763-38.763c0.384 0 0.766 0.006 1.148 0.017-0.012-0.001 0.041-0.002 0.094-0.002 21.407 0 38.772 17.305 38.869 38.69-0.048 21.362-17.296 38.67-38.621 38.815zM337.707 42.347c0.097 58.696 47.702 106.24 106.411 106.24 0.038 0 0.075 0 0.113 0 58.629-0.133 106.119-47.661 106.192-106.297-0.121-58.72-47.745-106.268-106.474-106.268-0.015 0-0.030 0-0.045 0-58.623 0.146-106.101 47.668-106.174 106.297zM482.859 42.368c-0.048 21.372-17.384 38.678-38.763 38.678-0.075 0-0.15 0-0.225-0.001-21.328-0.133-38.578-17.451-38.602-38.803 0.036-21.4 17.391-38.733 38.795-38.733 21.426 0 38.795 17.369 38.795 38.795 0 0.022 0 0.045 0 0.067z" />
<glyph unicode="&#xe917;" glyph-name="chart-bar" d="M554.667 874.667h-85.333c-46.933 0-85.333-38.4-85.333-85.333v-682.667c0-46.933 38.4-85.333 85.333-85.333h85.333c46.933 0 85.333 38.4 85.333 85.333v682.667c0 46.933-38.4 85.333-85.333 85.333zM554.667 106.667h-85.333v682.667h85.333v-682.667zM896 661.333h-85.333c-46.933 0-85.333-38.4-85.333-85.333v-469.333c0-46.933 38.4-85.333 85.333-85.333h85.333c46.933 0 85.333 38.4 85.333 85.333v469.333c0 46.933-38.4 85.333-85.333 85.333zM896 106.667h-85.333v469.333h85.333v-469.333zM213.333 448h-85.333c-46.933 0-85.333-38.4-85.333-85.333v-256c0-46.933 38.4-85.333 85.333-85.333h85.333c46.933 0 85.333 38.4 85.333 85.333v256c0 46.933-38.4 85.333-85.333 85.333zM213.333 106.667h-85.333v256h85.333v-256z" />
<glyph unicode="&#xe918;" glyph-name="checked" d="M1005.76 895.573c-8.398 8.326-19.961 13.471-32.725 13.471s-24.328-5.145-32.729-13.474l-476.946-476.946-106.283 106.283c-17.963 17.963-47.488 17.963-65.451 0s-17.963-47.488 0-65.451l139.008-139.008c8.981-8.981 20.843-13.611 32.725-13.611s23.744 4.629 32.725 13.611l509.675 509.675c8.45 8.341 13.684 19.922 13.684 32.725s-5.234 24.385-13.679 32.721zM880.363 492.16c-25.561-0.073-46.263-20.775-46.336-46.329v-324.359c-0.073-25.561-20.775-46.263-46.329-46.336h-648.69c-25.561 0.073-46.263 20.775-46.336 46.329v648.69c0 25.493 20.843 46.336 46.336 46.336h509.675c25.493 0 46.336 20.843 46.336 46.336s-20.843 46.336-46.336 46.336h-509.675c-76.762-0.024-138.984-62.246-139.008-139.006v-648.685c0.024-76.762 62.246-138.984 139.006-139.008h648.685c76.762 0.024 138.984 62.246 139.008 139.006v324.354c-0.073 25.561-20.775 46.263-46.329 46.336z" />
<glyph unicode="&#xe919;" glyph-name="chess-tower" horiz-adv-x="832" d="M350.357 960h133.397c0.341-0.149 0.661-0.341 1.003-0.405 17.963-3.349 29.44-17.067 29.483-35.307v-27.819h60.288v28.245c0.064 14.805 11.947 30.229 26.197 34.048 1.771 0.469 3.563 0.832 5.333 1.237h132.288c1.771-0.448 3.541-0.853 5.291-1.387 15.317-4.608 25.003-17.963 25.003-34.624 0.021-62.443 0.064-124.885-0.064-187.307-0.021-7.531-0.469-15.147-1.579-22.592-2.837-19.115-10.24-36.288-23.616-50.539-13.163-14.016-29.611-21.888-48.277-25.6-1.193-0.293-2.177-1.033-2.783-2.028-16.353-32.51-32.63-65.065-48.865-97.598-0.386-0.711-0.613-1.557-0.613-2.456 0-0.142 0.006-0.282 0.017-0.421 1.791-12.846 3.689-25.71 5.545-38.552l9.685-67.029 9.664-67.029 10.261-70.848 10.197-70.848 10.325-71.403 2.901-19.755h3.285c10.155 0 20.309 0.299 30.421-0.107 7.701-0.299 15.595-0.597 23.019-2.475 37.355-9.472 61.781-32.555 71.701-70.165 1.408-5.376 1.749-11.051 2.581-16.576v-7.744c-0.171-1.835-0.256-3.669-0.491-5.483-0.64-5.013-0.939-10.112-2.048-15.040-10.197-45.568-48.789-76.373-95.744-76.373-212.117-0.021-424.256-0.021-636.373 0.043-5.056 0-10.133 0.384-15.147 1.088-38.656 5.376-71.125 35.093-79.851 73.109-1.259 5.461-1.877 11.051-2.795 16.576v12.181l1.003 7.083c6.331 46.489 45.017 82.163 92.342 83.75 12.148 0.388 24.138 0.154 36.127 0.111 1.963 0 2.645 0.533 2.923 2.56 1.579 11.776 3.328 23.531 5.035 35.307l12.501 86.187 12.949 90.027 13.611 93.845c4.587 31.744 9.152 63.467 13.781 95.211 0.105 0.567 0.165 1.22 0.165 1.887 0 1.82-0.448 3.535-1.239 5.042-15.822 31.45-31.609 63.002-47.332 94.575-0.878 2.067-2.737 3.565-4.976 3.92-27.365 6.128-48.357 20.762-61.242 46.064-7.893 15.531-10.901 32.192-10.901 49.472v97.685c0 31.083-0.021 62.165 0.021 93.248-0.001 0.079-0.001 0.172-0.001 0.265 0 14.596 8.993 27.092 21.741 32.249 2.943 1.171 5.865 1.726 8.681 2.515h132.843c0.704-0.192 1.387-0.427 2.091-0.555 13.653-2.816 30.464-15.168 29.931-35.755-0.213-8.107-0.043-16.235-0.043-24.341v-2.901h60.245v3.349c0.043 9.216-0.256 18.453 0.192 27.669 0.469 9.941 4.779 18.219 12.544 24.619 4.834 3.861 10.7 6.641 17.116 7.875zM255.189 508.032l-55.104-377.856h434.347l-53.973 377.856h-325.269zM643.733 892.864v-3.115c0-8.768 0.021-17.536-0.021-26.283 0-2.027 0-4.075-0.32-6.059-2.773-16.555-16.469-27.968-33.728-27.989-42.347-0.043-84.672-0.021-127.019 0.043-2.837 0-5.717 0.405-8.469 1.024-12.992 2.859-27.648 15.040-26.837 33.643 0.363 8.555 0.064 17.152 0.064 25.728 0 0.981-0.085 1.963-0.128 2.944h-58.923c0-9.792 0.043-19.371-0.021-28.971 0.003-0.17 0.005-0.371 0.005-0.572 0-2.418-0.25-4.777-0.726-7.054-3.731-15.3-17.465-26.664-33.87-26.764-14.774-0.085-29.537-0.021-44.278-0.021-27.669 0-55.339-0.085-83.008 0.043-19.2 0.085-33.259 14.379-33.28 33.557v29.781h-60.288v-157.952c0-18.603 12.885-31.552 31.445-31.573 169.451-0.021 338.88 0 508.331 0.021 2.667 0 5.376 0.192 7.957 0.747 14.229 3.051 23.403 14.571 23.424 29.483 0.043 52.309 0.021 104.597 0 156.907 0 0.789-0.107 1.6-0.171 2.432h-60.117zM417.323 1.771h315.477c1.472 0 2.944-0.043 4.437 0.043 12.032 0.576 20.949 6.251 26.133 17.045 5.248 10.923 4.011 21.589-3.2 31.275-6.443 8.661-15.467 11.883-26.091 11.883-211.157-0.064-422.293-0.043-633.451-0.043-1.195 0-2.411 0.021-3.605-0.064-12.459-1.003-21.333-7.36-26.368-18.603-4.864-10.923-2.987-21.355 4.395-30.592 6.293-7.872 14.827-10.987 24.853-10.987 105.813 0.064 211.605 0.043 317.419 0.043zM618.645 636.16h-401.685c0.491-1.088 0.853-1.941 1.259-2.752 9.067-18.133 18.155-36.224 27.136-54.4 1.024-2.069 2.176-2.901 4.565-2.901 111.979 0.064 223.957 0.064 335.936 0.021 2.112 0 3.243 0.555 4.224 2.539 9.067 18.325 18.24 36.608 27.392 54.891 0.405 0.789 0.725 1.643 1.152 2.581z" />
<glyph unicode="&#xe91a;" glyph-name="clip" horiz-adv-x="981" d="M670.635 960c29.504 0 57.835-5.547 84.971-16.661 28.331-11.328 53.333-27.84 75.051-49.557 20.836-20.769 37.604-45.606 49.013-73.221 11.403-28.155 16.822-56.486 16.822-86.459s-5.419-58.304-16.277-84.971c-11.971-29.097-28.736-53.931-49.553-74.705l-417.092-417.092c-12.641-12.571-27.691-22.735-44.394-29.738-17.921-6.955-34.902-10.262-51.905-10.262s-33.984 3.307-50.987 9.92c-17.619 7.35-32.668 17.514-45.319 30.087-12.587 12.446-22.665 27.413-29.417 44.084-6.59 15.751-10.237 33.041-10.237 51.183 0 0.24 0.001 0.48 0.002 0.72 0 18.139 3.307 35.248 9.92 51.291 7.204 17.502 17.261 32.446 29.743 44.975l384.87 384.529c8.006 8.306 19.229 13.465 31.657 13.465 0.196 0 0.391-0.001 0.586-0.004 12.258 0 22.882-4.48 31.864-13.461s13.461-19.605 13.461-31.893c0-12.501-4.48-23.253-13.461-32.213l-384.875-384.533c-8.725-8.725-13.077-19.456-13.077-32.213 0-12.501 4.352-23.125 13.077-31.893 9.451-8.981 20.181-13.461 32.213-13.461s22.784 4.48 32.213 13.461l417.088 417.088c26.197 26.197 39.296 58.069 39.296 95.616s-13.099 69.419-39.296 95.616c-26.923 26.453-58.901 39.659-95.957 39.659-37.291 0-69.163-13.227-95.616-39.659l-418.155-416.043c-20.935-20.82-37.721-45.788-49.025-73.57-11.071-26.493-17.195-55.57-17.195-86.077 0-0.252 0-0.503 0.001-0.755 0-29.23 5.547-57.668 16.661-85.273 11.895-29.124 28.671-53.97 49.545-74.697 22.455-22.199 47.458-38.839 75.063-49.954 25.235-10.555 54.558-16.686 85.312-16.686s60.077 6.131 86.812 17.238c26.105 10.562 51.108 27.202 73.551 49.389l416.384 416.384c8.006 8.306 19.229 13.465 31.657 13.465 0.196 0 0.391-0.001 0.586-0.004 12.258 0 22.882-4.48 31.864-13.461s13.461-19.605 13.461-31.893c0-12.501-4.48-23.253-13.461-32.213l-416.384-416.384c-29.213-29.366-64.186-52.97-103.086-68.978-36.976-15.549-77.549-24.144-120.129-24.144-0.448 0-0.896 0.001-1.344 0.003-41.467 0-81.232 7.786-119.248 23.381-40.984 16.777-75.956 40.38-105.161 69.726-29.232 29.131-52.726 63.974-68.672 102.719-15.548 37.185-24.141 77.991-24.141 120.803 0 0.21 0 0.42 0.001 0.63 0 41.503 7.787 81.269 23.381 119.285 16.808 40.926 40.288 75.877 69.433 105.188l0.327-0.015 417.813 416.043c20.742 20.881 45.588 37.656 73.23 49.019 26.611 11.048 55.812 17.167 86.437 17.2l0.013 0.043z" />
<glyph unicode="&#xe91b;" glyph-name="clock" d="M512 960q104.363 0 199.083-40.555t163.264-109.099 109.099-163.264 40.555-199.083-40.555-199.083-109.099-163.264-163.264-109.099-199.083-40.555-199.083 40.555-163.264 109.099-109.099 163.264-40.555 199.083 40.555 199.083 109.099 163.264 163.264 109.099 199.083 40.555zM512 866.901q-85.099 0-162.731-33.28t-133.632-89.28-89.28-133.632-33.28-162.731 33.28-162.731 89.28-133.632 133.632-89.28 162.731-33.28 162.731 33.28 133.632 89.28 89.28 133.632 33.28 162.731-33.28 162.731-89.28 133.632-133.632 89.28-162.731 33.28zM512 773.824q19.264 0 32.917-13.632t13.632-32.917v-259.989l126.187-125.824q13.461-13.461 13.461-33.088t-13.461-33.088-33.088-13.461-33.088 13.461l-139.627 139.627q-13.461 13.461-13.461 33.088v279.275q0 19.264 13.632 32.917t32.917 13.632z" />
<glyph unicode="&#xe91c;" glyph-name="cloud" d="M768 576h-22.4c-54.4 152.277-198.933 256-361.877 256-211.733 0-384-172.267-384-384s172.267-384 384-384h384.277c141.077 0 256 114.923 256 256s-114.923 256-256 256zM768 149.333h-384.277c-164.8 0-298.667 133.867-298.667 298.667s133.867 298.667 298.667 298.667c135.467 0 254.4-92.267 289.323-224.277 5.056-18.406 21.634-31.708 41.321-31.723h53.612c94.123 0 170.667-76.523 170.667-170.667s-76.523-170.667-170.667-170.667z" />
<glyph unicode="&#xe91d;" glyph-name="cloud-download" d="M652.523 264.789l-97.877-97.877v281.067c0 23.467-19.2 42.667-42.667 42.667s-42.667-19.2-42.667-42.667v-281.067l-97.877 97.877c-16.533 16.533-43.733 16.533-60.267 0s-16.533-43.733 0-60.267l173.653-173.653c3.2-2.667 6.4-4.523 9.877-6.123h0.555c4.523-1.877 9.6-3.2 14.933-3.477h3.797c5.333 0.277 10.411 1.323 14.933 3.477s0.277 0 0.277 0h0.277c3.2 1.323 6.123 3.2 9.067 5.611s0.277 0.277 0.277 0.277l1.109 1.109c0.789 0.533 1.323 1.323 2.133 2.133l170.411 170.411c7.664 7.734 12.399 18.381 12.399 30.133s-4.735 22.4-12.402 30.137c-15.997 17.063-43.197 17.063-59.73 0.274zM768 618.667h-22.4c-54.4 152.533-198.933 256.533-362.133 256.533-211.733 0-384-172.267-384-384 0-94.123 34.389-184.533 96.789-254.933 15.723-17.6 42.667-19.2 60.267-3.477s19.2 42.667 3.477 60.267c-46.679 52.396-75.2 121.854-75.2 197.974 0 0.052 0 0.104 0 0.156 0 164.792 133.867 298.659 298.667 298.659 135.467 0 254.677-92.267 289.323-224.789 4.963-18.403 21.505-31.723 41.157-31.723 0.058 0 0.116 0 0.174 0h53.858c94.123 0 170.667-76.523 170.667-170.667 0-56-26.389-106.923-72.533-139.733-10.933-7.837-17.973-20.505-17.973-34.816 0-9.243 2.936-17.801 7.927-24.791 7.745-10.748 20.375-17.748 34.639-17.748 0.069 0 0.138 0 0.206 0 8.523 0 17.056 2.667 24.523 8 65.873 47.067 108.348 123.216 108.523 209.295 0.277 140.828-114.667 255.75-256 255.75z" />
<glyph unicode="&#xe91e;" glyph-name="cloud-upload" d="M768 618.667h-22.4c-25.831 70.604-69.147 129.635-124.804 173.783-64.763 51.478-146.702 82.22-235.821 82.22-0.44 0-0.88-0.001-1.32-0.002-211.666 0-383.932-172.266-383.932-384 0-93.867 34.389-184.533 96.533-254.677 15.723-17.6 42.667-19.2 60.267-3.733 17.6 15.723 19.2 42.667 3.733 60.267-46.679 52.396-75.2 121.854-75.2 197.974 0 0.052 0 0.104 0 0.156 0 164.792 133.867 298.659 298.667 298.659 135.467 0 254.4-92.267 289.323-224.277 5.056-18.406 21.634-31.708 41.321-31.723h53.612c94.123 0 170.667-76.523 170.667-170.667 0-62.123-34.133-119.467-89.323-149.867-13.216-7.476-21.99-21.437-21.99-37.448 0-7.487 1.919-14.526 5.292-20.652 7.275-13.052 21.215-21.887 37.219-21.901 6.935 0 14.125 1.6 20.525 5.333 82.133 45.333 133.333 131.477 133.333 224.533 0 141.077-114.667 256-255.723 256zM542.4 478.123l-1.6 1.6h-0.277l-0.277 0.277s-0.277 0-0.277 0.277h-0.277l-0.277 0.277c-3.091 2.769-6.712 5.026-10.68 6.593l-1.074 0.084c-3.761 1.578-8.118 2.624-12.681 2.917l-6.092 0.006c-4.267-0.277-8.533-1.323-12.523-2.923s-0.277 0-0.277 0h-0.277c-4.267-1.6-8-4.011-11.733-7.189s-0.277-0.277-0.277-0.277l-0.555-0.555c-0.533-0.277-0.811-0.811-1.323-1.323l-170.667-170.667c-16.533-16.533-16.533-43.733 0-60.267s43.733-16.533 60.267 0l97.877 97.877v-280.811c0-23.467 19.2-42.667 42.667-42.667s42.667 19.2 42.667 42.667v281.067l97.877-97.877c7.707-7.714 18.358-12.485 30.123-12.485s22.416 4.771 30.122 12.485c7.664 7.734 12.399 18.381 12.399 30.134s-4.735 22.4-12.402 30.137l-170.664 170.663z" />
<glyph unicode="&#xe91f;" glyph-name="coffee-cup" d="M873.113 430.537h-61.468v86.614c0 23.749-18.161 41.91-41.91 41.91h-725.042c-23.749 0-41.91-18.161-41.91-41.91v-176.022c0-129.921 61.468-247.269 157.861-321.31h-117.348c-23.749 0-41.91-18.161-41.91-41.91s18.161-41.91 41.91-41.91h716.66c23.749 0 41.91 18.161 41.91 41.91s-18.161 41.91-41.91 41.91h-107.569c37.719 29.337 71.247 65.659 96.393 107.569h122.936c83.82 0 150.876 68.453 150.876 150.876 1.397 83.82-65.659 152.273-149.479 152.273zM406.516 21.217c-177.419 0-321.31 143.891-321.31 321.31v134.112h641.222v-134.112c1.397-177.419-142.494-321.31-319.913-321.31zM873.113 211.209h-83.82c13.97 40.513 20.955 83.82 20.955 129.921v5.588h61.468c37.719 0 67.056-30.734 67.056-67.056 1.397-37.719-27.94-68.453-65.659-68.453zM448.426 742.068v176.022c0 23.749-18.161 41.91-41.91 41.91s-41.91-18.161-41.91-41.91v-176.022c0-23.749 18.161-41.91 41.91-41.91s41.91 18.161 41.91 41.91zM630.036 680.6v177.419c0 23.749-18.161 41.91-41.91 41.91s-41.91-18.161-41.91-41.91v-177.419c0-23.749 18.161-41.91 41.91-41.91s41.91 19.558 41.91 41.91zM266.816 680.6v177.419c0 23.749-18.161 41.91-41.91 41.91s-41.91-18.161-41.91-41.91v-177.419c0-23.749 18.161-41.91 41.91-41.91s41.91 19.558 41.91 41.91z" />
<glyph unicode="&#xe920;" glyph-name="cog" d="M0.832 481.6c1.259 6.293 2.048 12.693 3.797 18.837 11.307 39.275 46.336 65.408 88.021 65.792 11.776 0.107 23.552-0.043 35.307 0.128 1.323 0.021 3.52 0.981 3.84 2.027 7.168 22.144 16.107 43.52 26.965 64.448-9.067 9.024-18.069 18.048-27.093 27.008-12.011 11.925-20.48 25.92-24.405 42.389-7.552 31.744-0.661 60.16 21.419 84.203 14.522 15.566 29.039 30.124 44.026 44.189 34.886 33.081 89.798 32.675 124.358-0.178 9.344-8.896 18.347-18.112 27.371-27.328 1.749-1.792 3.072-2.027 5.355-0.832 17.017 9.129 37.013 17.599 57.818 24.263 4.966 1.444 5.862 2.511 5.819 5.071-0.076 5.813-0.12 12.677-0.12 19.552s0.044 13.739 0.13 20.593c0.63 42.095 35.062 80.431 77.92 85.807 4.587 0.576 9.216 0.853 13.824 0.896 17.941 0.107 35.861 0.107 53.781 0.043 47.040-0.192 84.629-32.32 90.965-78.869 1.856-13.504 0.875-27.435 1.024-41.152 0.128-9.984 0.192-9.579 9.472-13.312 18.155-7.339 36.096-15.104 54.059-22.912 2.304-0.981 3.584-1.024 5.376 0.811 8.043 8.213 16.192 16.32 24.363 24.405 37.504 37.227 93.44 37.184 130.901-0.149 12.416-12.352 24.811-24.725 37.163-37.163 37.035-37.248 37.056-93.376 0.064-130.667-8.107-8.171-16.192-16.299-24.427-24.341-1.728-1.707-2.197-2.965-0.96-5.333 10.155-19.392 18.496-39.509 25.024-60.416 0.875-2.731 2.24-3.264 4.821-3.264 14.571-0.021 29.184 0.299 43.712-0.533 40.405-2.304 76.736-36.544 81.749-76.672 0.64-4.992 0.939-10.048 0.96-15.083 0.107-17.792 0.107-35.584 0.043-53.376-0.171-45.803-30.485-82.304-75.52-90.667-4.735-0.818-10.188-1.285-15.75-1.285-0.343 0-0.685 0.002-1.027 0.005-12.407-0.192-24.887-0.064-37.708-0.064-0.96-2.752-1.771-5.525-2.88-8.192-7.701-18.432-15.403-36.907-23.296-55.232-1.067-2.475-1.024-3.797 0.939-5.696 8.32-8.128 16.512-16.363 24.704-24.64 36.288-36.608 36.437-92.693 0.32-129.429-12.864-13.077-25.856-26.048-38.933-38.933-36.736-36.203-92.715-36.075-129.387 0.256-9.067 8.96-18.005 18.005-26.773 26.816-12.971-5.76-25.472-11.584-38.251-16.896-8.128-3.392-16.512-6.187-24.875-8.896-2.923-0.917-3.904-2.197-3.904-5.248 0.043-14.293 0.32-28.608-0.448-42.837-2.219-39.936-34.56-75.541-74.048-81.899-6.336-1.024-12.8-1.536-19.221-1.536-20.587-0.043-41.237-0.619-61.76 0.683-39.147 2.432-73.728 33.92-80.192 72.704-1.963 11.776-1.451 23.957-1.856 36.011-0.213 5.888-0.128 11.776 0 17.664 0.064 2.304-0.576 3.392-2.944 4.16-23.739 7.554-43.985 16.143-63.249 26.341 0.017 0.070-1.071-0.293-2.564-1.829-8.171-8.299-16.384-16.512-24.64-24.704-37.269-37.056-93.376-37.099-130.603-0.043-12.713 12.653-24.919 24.852-37.099 37.076-37.355 37.591-37.333 93.783-0.32 130.988 8.107 8.171 16.192 16.32 24.405 24.32 1.792 1.771 2.048 3.072 0.875 5.355-9.091 16.987-17.572 36.98-24.285 57.767-1.614 5.401-2.894 5.977-5.475 5.956-11.776-0.128-23.552-0.107-35.307-0.043-47.381 0.235-85.525 34.581-90.752 81.685-0.128 1.088-0.469 2.155-0.704 3.221 0.043 22.72 0.043 45.397 0.043 68.096zM561.6 60.352c0 10.24-0.043 20.437 0 30.677 0.043 18.517 9.941 31.424 27.968 35.861 35.991 8.949 67.648 22.491 96.422 40.255 13.85 8.471 30.256 6.295 43.034-6.399 14.677-14.613 29.355-29.355 44.011-44.011 10.176-10.176 23.104-10.133 33.365 0.107 12.203 12.203 24.384 24.363 36.544 36.587 10.304 10.347 10.304 22.592 0.043 32.896l-42.773 42.816c-14.635 14.635-16.491 30.101-5.803 47.829 16.209 26.357 29.218 56.877 37.403 89.316 5.349 22.002 17.808 31.772 38.181 31.772 20.459 0 40.917-0.043 61.376 0.043 13.76 0.043 22.549 8.832 22.635 22.656 0.107 17.664 0.064 35.328 0 52.949-0.064 14.208-8.96 22.976-23.211 22.976-20.736 0.043-41.472 0-62.208 0-18.624 0.043-31.68 10.219-36.075 28.352-8.686 35.422-21.959 66.6-39.424 94.916-9.216 15.1-7.254 31.164 6.336 44.796 14.528 14.592 29.163 29.12 43.669 43.712 10.112 10.155 10.133 22.528 0.107 32.619-12.267 12.309-24.576 24.576-36.864 36.864-10.24 10.24-23.040 10.176-33.387-0.128-14.784-14.741-29.461-29.568-44.331-44.245-12.459-12.288-28.885-14.4-43.84-5.312-27.443 17.024-59.24 30.614-93.072 39.064-20.037 4.798-30.021 17.918-30.042 36.136-0.043 20.608 0 41.195 0 61.781 0 15.296-8.64 23.872-24.043 23.872h-50.88c-15.168-0.043-23.744-8.555-23.744-23.68-0.043-20.608 0.064-41.173-0.043-61.781-0.064-18.496-10.176-31.616-28.032-35.925-35.863-8.838-67.42-22.291-96.092-39.971-14.35-8.754-30.564-6.6-43.726 6.52-14.677 14.656-29.312 29.355-44.011 44.011-9.728 9.685-22.805 9.749-32.469 0.128-12.416-12.352-24.811-24.768-37.163-37.163-10.261-10.304-10.197-22.613 0.064-32.917 14.571-14.592 29.163-29.12 43.691-43.712 13.291-13.312 15.381-29.504 5.696-45.504-16.826-27.238-30.275-58.791-38.659-92.35-4.797-19.906-17.896-30.018-36.136-30.061-20.864-0.043-41.749 0-62.613 0-13.973 0-22.912-8.896-22.912-22.784-0.043-17.365 0-34.752 0-52.139 0-15.232 8.405-23.701 23.616-23.701 20.608-0.043 41.195 0.064 61.803-0.043 18.56-0.064 31.424-10.091 35.84-28.075 8.897-35.852 22.374-67.39 40.060-96.055 8.666-14.217 6.618-30.473-6.246-43.401-14.72-14.827-29.525-29.547-44.288-44.331-10.091-10.112-10.091-22.571-0.043-32.64 12.16-12.203 24.384-24.384 36.565-36.544 10.453-10.432 23.275-10.496 33.664-0.128 14.272 14.229 28.544 28.544 42.816 42.816 14.251 14.251 29.973 16.128 47.168 5.696 26.335-16.293 56.839-29.329 89.284-37.476 22.46-5.446 32.082-17.82 32.124-38.748 0-20.459-0.064-40.939 0.021-61.376 0.064-13.269 9.024-22.101 22.251-22.101 18.069-0.043 36.16-0.064 54.229 0 13.056 0.043 22.080 9.152 22.144 22.293 0.043 10.795 0 21.611 0 32.384zM743.211 447.36c0.043-127.168-103.488-230.784-230.635-230.869-127.701-0.107-231.317 103.445-231.189 231.061 0.171 127.467 103.701 230.848 231.168 230.763 127.040-0.107 230.635-103.808 230.656-230.955zM350.763 447.488c-0.064-88.917 72.405-161.493 161.429-161.643 88.768-0.128 161.259 72.256 161.408 161.152 0.149 89.216-72.064 161.685-161.131 161.728-89.216 0-161.664-72.192-161.728-161.216z" />
<glyph unicode="&#xe921;" glyph-name="coins" d="M1024 780.8c-40.96 128-286.72 179.2-512 179.2s-476.16-51.2-512-174.080v-665.6c0-153.6 322.56-184.32 512-184.32s512 35.84 512 179.2v665.6zM921.6 412.16v-87.040c-40.96-51.2-307.2-81.92-409.6-81.92-81.92 0-358.4 15.36-409.6 81.92v87.040c102.4-51.2 286.72-66.56 409.6-66.56 117.76 0 307.2 15.36 409.6 66.56zM921.6 627.2v-102.4c-35.84-51.2-276.48-76.8-409.6-76.8s-373.76 30.72-409.6 81.92v102.4c112.64-66.56 286.72-81.92 409.6-81.92s296.96 20.48 409.6 76.8zM512 857.6c256 0 399.36-66.56 409.6-102.4 0-25.6-143.36-102.4-409.6-102.4h-51.2c-235.52 10.24-358.4 76.8-358.4 102.4 10.24 35.84 153.6 102.4 409.6 102.4zM921.6 120.32c-20.48-25.6-153.6-81.92-409.6-81.92s-389.12 51.2-409.6 81.92v87.040c112.64-51.2 291.84-66.56 409.6-66.56s307.2 15.36 409.6 66.56v-87.040z" />
<glyph unicode="&#xe922;" glyph-name="command" d="M780.8 896q74.197 0 126.699-52.501t52.501-126.699-52.501-126.699-126.699-52.501h-89.6v-179.2h89.6q74.197 0 126.699-52.501t52.501-126.699-52.501-126.699-126.699-52.501-126.699 52.501-52.501 126.699v89.6h-179.2v-89.6q0-74.197-52.501-126.699t-126.699-52.501-126.699 52.501-52.501 126.699 52.501 126.699 126.699 52.501h89.6v179.2h-89.6q-74.197 0-126.699 52.501t-52.501 126.699 52.501 126.699 126.699 52.501 126.699-52.501 52.501-126.699v-89.6h179.2v89.6q0 74.197 52.501 126.699t126.699 52.501zM332.8 179.2v89.6h-89.6q-37.099 0-63.339-26.24t-26.24-63.339 26.24-63.339 63.339-26.24 63.339 26.24 26.24 63.339zM243.2 806.4q-37.099 0-63.339-26.24t-26.24-63.339 26.24-63.339 63.339-26.24h89.6v89.6q0 37.099-26.24 63.339t-63.339 26.24zM601.6 358.4v179.2h-179.2v-179.2h179.2zM780.8 268.8h-89.6v-89.6q0-37.099 26.24-63.339t63.339-26.24 63.339 26.24 26.24 63.339-26.24 63.339-63.339 26.24zM780.8 806.4q-37.099 0-63.339-26.24t-26.24-63.339v-89.6h89.6q37.099 0 63.339 26.24t26.24 63.339-26.24 63.339-63.339 26.24z" />
<glyph unicode="&#xe923;" glyph-name="comment" horiz-adv-x="1152" d="M46.080-64h-12.288c-10.347 2.795-19.968 7.104-25.92 16.427-3.392 5.312-5.312 11.541-7.872 17.365v788.48c0.981 6.72 1.899 13.44 2.944 20.16 13.653 86.784 81.536 158.336 167.616 176.491 10.283 2.176 20.779 3.413 31.168 5.077h748.544c1.472-0.32 2.944-0.683 4.437-0.939 9.92-1.579 20.011-2.475 29.739-4.821 99.669-23.957 167.509-110.208 167.552-212.715 0.021-139.243 0.021-278.464-0.021-417.707 0-6.656-0.256-13.333-0.853-19.925-5.611-61.376-32.363-111.765-80.043-150.635-39.787-32.448-85.909-48.043-137.173-48.107-84.459-0.149-168.917-0.043-253.397-0.043-147.584 0-295.189 0.021-442.773-0.107-2.752 0-6.272-0.896-8.171-2.688-51.989-49.323-103.893-98.731-155.627-148.331-8.213-7.872-16.448-15.275-27.84-18.005zM79.019 68.459c2.325 2.155 3.669 3.349 4.971 4.587 33.451 31.936 67.115 63.659 100.203 95.957 11.008 10.731 23.104 15.467 38.464 15.424 236.011-0.235 472.043-0.213 708.053-0.043 11.179 0 22.635 0.725 33.515 3.093 64.32 13.952 108.672 69.205 108.715 135.040 0.107 140.117 0.043 280.213-0.021 420.331 0.001 0.222 0.002 0.484 0.002 0.747 0 75.818-61.462 137.28-137.28 137.28-0.016 0-0.032 0-0.047 0-239.763 0.149-479.549 0.064-719.315 0.021-15.275 0-30.208-2.539-44.672-7.573-55.893-19.477-92.544-71.211-92.565-131.115-0.064-222.528-0.021-445.077-0.021-667.605v-6.165zM585.664 599.445c-87.189 0-174.379-0.021-261.568 0.021-21.013 0-36.629 15.509-36.416 35.925 0.333 18.645 15.025 33.752 33.468 34.748 1.455 0.068 2.82 0.047 4.186 0.047h521.6c19.691 0 33.835-11.285 37.269-29.653 3.733-20.011-12.011-39.957-32.363-40.981-2.389-0.107-4.779-0.085-7.168-0.085h-259.008zM469.312 460.565c47.787 0 95.573 0.064 143.339-0.021 19.968-0.043 34.539-12.992 36.992-32.469 2.389-18.944-12.203-37.44-31.189-39.509-2.027-0.213-4.075-0.363-6.123-0.363-95.403-0.021-190.784-0.043-286.187 0-17.749 0-31.744 10.176-36.309 25.984-6.763 23.424 10.304 46.165 35.072 46.336 31.403 0.213 62.805 0.064 94.208 0.064h50.176z" />
<glyph unicode="&#xe924;" glyph-name="connection" d="M770.773 333.035c-0.021 0-0.046 0-0.071 0-20.084 0-37.909 9.67-49.073 24.608-3.613 4.811-78.899 102.369-211.165 102.369-132.011 0-204.395-97.301-207.403-101.461-11.302-15.395-29.332-25.277-49.67-25.277-13.378 0-25.757 4.276-35.846 11.535-15.398 11.079-25.425 29.156-25.425 49.576 0 13.212 4.198 25.444 11.333 35.434 4.29 6.044 110.274 152.646 307.010 152.646 196.032 0 305.088-145.835 309.653-152.043 7.381-9.996 11.814-22.56 11.814-36.16 0-33.802-27.382-61.209-61.175-61.248zM962.795 477.077c-0.026 0-0.058 0-0.089 0-20.158 0-38.038 9.752-49.18 24.795-6.709 9.019-149.557 196.581-404.234 196.581s-392.469-187.712-398.208-195.691c-11.253-15.569-29.359-25.583-49.804-25.583-13.326 0-25.658 4.254-35.712 11.479-15.47 11.095-25.548 29.23-25.548 49.719 0 13.221 4.196 25.462 11.33 35.463 6.999 9.925 178.37 247.088 497.964 247.088 318.869 0 495.509-236.395 502.891-246.464 7.359-9.988 11.777-22.537 11.777-36.117 0-33.801-27.371-61.209-61.158-61.269zM636.416 204.032c0-71.104-57.621-128.939-128.661-128.939-71.182 0.073-128.866 57.757-128.939 128.932 0 71.068 57.835 128.711 128.939 128.711 71.063-0.024 128.661-57.638 128.661-128.704z" />
<glyph unicode="&#xe925;" glyph-name="copy" d="M384 874.667h426.667q52.992 0 90.496-37.504t37.504-90.496v-426.667q0-52.992-37.504-90.496t-90.496-37.504h-426.667q-52.992 0-90.496 37.504t-37.504 90.496v426.667q0 52.992 37.504 90.496t90.496 37.504zM170.667 696.661v-547.328q0-17.664 12.501-30.165t30.165-12.501h547.328q-13.333-37.675-46.336-61.504t-74.325-23.829h-426.667q-52.992 0-90.496 37.504t-37.504 90.496v426.667q0 41.323 23.829 74.325t61.504 46.336zM810.667 789.333h-426.667q-17.664 0-30.165-12.501t-12.501-30.165v-426.667q0-17.664 12.501-30.165t30.165-12.501h426.667q17.664 0 30.165 12.501t12.501 30.165v426.667q0 17.664-12.501 30.165t-30.165 12.501z" />
<glyph unicode="&#xe926;" glyph-name="cross" d="M885.333 874.667q22.912 0 38.123-15.211t15.211-38.123q0-22.507-15.424-37.909l-335.829-335.403 335.829-335.403q15.424-15.424 15.424-37.909 0-22.912-15.211-38.123t-38.123-15.211q-22.507 0-37.909 15.424l-335.403 335.829-335.403-335.829q-15.424-15.424-37.909-15.424-22.912 0-38.123 15.211t-15.211 38.123q0 22.507 15.424 37.909l335.829 335.403-335.829 335.403q-15.424 15.424-15.424 37.909 0 22.912 15.211 38.123t38.123 15.211q22.507 0 37.909-15.424l335.403-335.829 335.403 335.829q15.424 15.424 37.909 15.424z" />
<glyph unicode="&#xe927;" glyph-name="dashboard" d="M528.853-64h-33.749c-0.789 0.192-1.557 0.491-2.368 0.533-6.891 0.427-13.803 0.747-20.693 1.237-41.023 2.912-79.185 10.557-115.428 22.437-127.345 41.35-226.865 122.246-293.702 242.267-45.995 82.645-66.197 171.819-62.485 266.389 0.917 23.531 3.499 46.848 7.723 69.995 12.745 69.658 38.111 131.632 73.801 186.248 64.823 100.408 155.277 171.405 270.754 210.296 38.784 13.056 78.72 20.48 119.552 23.040 6.336 0.405 12.651 1.045 18.965 1.557h1.109c1.045-0.149 2.112-0.448 3.157-0.448 19.371 0.256 38.699-0.427 58.005-2.219 31.531-2.944 62.549-8.661 93.077-17.067 54.464-14.997 104.939-38.763 151.787-70.144 94.741-63.467 160.725-149.397 198.848-256.747 10.837-30.549 18.133-62.059 21.781-94.272 2.027-17.835 3.477-35.776 4.267-53.696 0.853-19.52-0.256-39.040-1.877-58.539-1.984-23.915-4.949-47.659-10.325-71.040-21.12-91.883-63.552-172.608-129.045-240.448-93.461-96.811-207.616-149.909-342.187-158.4-3.669-0.235-7.317-0.661-10.965-1.003zM843.52 740.245l-1.131-1.045-73.749-73.707c-1.209-1.233-2.454-2.41-3.741-3.539-6.089-5.257-13.978-8.418-22.606-8.418-7.311 0-14.092 2.27-19.676 6.144-17.955 12.384-20.046 37.216-4.281 53.386 8.747 8.981 17.707 17.749 26.56 26.624l48.747 48.917c-73.899 60.16-158.229 94.016-253.739 100.8v-35.371c-0.021-21.205 0.128-42.411-0.085-63.616-0.213-21.12-20.096-37.035-40.768-32.96-16.853 3.328-28.245 16.853-28.288 34.005-0.107 31.253-0.043 62.507-0.043 93.76v3.307c-51.477-5.184-100.352-18.133-146.773-40.021-37.842-18.156-70.453-39.509-99.842-64.534l2.69-1.6 40.32-40.256c10.027-10.048 20.203-19.947 30.016-30.229 5.953-6.168 9.621-14.575 9.621-23.84 0-11.733-5.883-22.092-14.861-28.288-14.067-9.846-32.307-8.011-45.022 4.661-23.317 23.232-46.549 46.549-69.803 69.824-0.384 0.384-0.576 0.939-1.024 1.728-60.779-72.107-95.957-154.24-105.067-247.851h3.179c7.552 0.064 15.125 0.107 22.677 0.192 28.117 0.299 56.235 0.789 84.352 0.896 21.504 0.085 37.781-19.968 33.621-41.003-3.050-16.115-17.020-28.139-33.799-28.139-0.043 0-0.085 0-0.128 0-35.577-0.448-71.161-0.811-106.745-1.216h-3.797c3.725-55.566 17.201-107.097 38.736-154.17l1.605 6.053c48.121 59.477 108.325 107.197 177.078 139.834 37.338 17.808 77.184 31.116 118.884 39.239 5.264 0.917 6.075 1.855 6.523 3.797 4.437 19.093 8.747 38.229 13.419 57.28 15.573 63.659 31.232 127.296 46.997 190.912 4.011 16.213 17.643 26.709 33.749 26.667s29.504-10.603 33.643-26.816c8-31.296 16.149-62.571 23.744-93.973 12.416-51.349 24.469-102.805 36.608-154.219 0.491-2.069 1.429-3.115 3.563-3.563 4.693-0.96 9.301-2.219 13.995-3.243 60.18-13.535 113.342-35.982 161.092-66.207 48.722-30.326 92.199-70.049 129.362-116.812l2.88-3.584c22.525 46.622 37.213 100.988 40.812 158.362l-3.222 1.254-29.035-0.021c-25.899 0.021-51.819-0.085-77.717 0.085-25.301 0.171-41.856 24.469-32.597 47.573 5.397 13.461 17.749 21.525 33.323 21.547 34.944 0.043 69.888 0.021 104.832 0.043h3.755c-9.664 95.659-46.123 179.115-108.8 251.392zM145.003 201.131c0.576-0.917 1.088-1.771 1.664-2.603 15.139-22.461 31.319-42.083 49.187-60.024 94.365-93.704 207.944-138.248 341-132.317 38.847 1.82 75.424 8.794 109.949 20.263 91.523 29.572 167.726 85.060 225.582 165.657 1.301 1.792 1.301 2.944 0.021 4.757-62.763 89.749-147.072 148.971-252.395 178.496-0.747 0.213-1.515 0.32-2.581 0.533 0.683-4.16 1.28-7.957 1.941-11.755 2.816-16 3.776-32.043 0.619-48.107-12.651-64.597-79.872-109.845-149.867-86.592-45.605 15.68-77.792 58.208-77.792 108.254 0 7.145 0.656 14.137 1.911 20.919 0.916 5.355 1.769 11.435 2.75 17.878-105.323-28.267-189.077-86.72-251.968-175.381zM507.477 549.995h-0.576l-3.179-13.141c-14.464-61.077-29.931-121.941-40.405-183.893-1.365-8.107-2.368-16.256-0.533-24.427 5.525-24.64 28.267-39.595 53.269-35.072 22.101 3.989 39.125 25.941 36.395 47.744-1.933 16.173-4.293 29.976-7.267 43.549-10.397 46.733-21.747 96.333-32.989 145.976-1.451 6.421-3.115 12.821-4.693 19.221z" />
<glyph unicode="&#xe928;" glyph-name="database" d="M512 917.333q87.339 0 169.003-10.496t149.824-30.677 109.333-53.675 41.173-75.84v-597.333q0-42.325-41.173-75.84t-109.333-53.675-149.824-30.677-169.003-10.496-169.003 10.496-149.824 30.677-109.333 53.675-41.173 75.84v597.333q0 42.325 41.173 75.84t109.333 53.675 149.824 30.677 169.003 10.496zM896 149.995v194.325q-65.323-33.003-168.341-50.005t-215.659-17.003-215.659 17.003-168.341 50.005v-195.008q2.005-7.339 17.835-17.664t48.491-22.336 76.011-21.995 107.008-16.661 134.677-6.677 134.677 6.677 107.008 16.832 76.011 22.165 48.491 22.336 17.835 18.005zM896 448.661v194.325q-65.323-33.003-168.341-50.005t-215.659-17.003-215.659 17.003-168.341 50.005v-195.008q2.005-7.339 17.835-17.664t48.491-22.336 76.011-21.995 107.008-16.661 134.677-6.677 134.677 6.677 106.837 16.661 75.84 21.995 48.661 22.507 18.005 18.176zM512 832q-70.336 0-133.675-6.677t-106.325-16.491-75.84-21.675-49.173-22.336-19.008-18.176q2.667-7.659 19.008-18.176t49.173-22.336 75.84-21.675 106.325-16.491 133.675-6.677 133.675 6.677 106.325 16.491 75.84 21.675 49.173 22.336 19.008 18.176q-2.667 7.659-19.008 18.176t-49.173 22.336-75.84 21.675-106.325 16.491-133.675 6.677z" />
<glyph unicode="&#xe929;" glyph-name="desk-lamp" horiz-adv-x="768" d="M757.504-20.256l-68.928 107.424c-5.248 8.064-14.304 13.12-24 13.12h-182.208l131.616 258.56c7.264-1.408 14.72-2.24 22.176-2.24 60.064 0 109.056 49.024 109.056 109.12s-48.96 109.024-109.056 109.024c-19.968 0-38.496-5.44-54.4-14.72l-176.96 176.96 35.84 108.16c3.424 10.24 0.64 21.44-6.848 29.12l-77.632 77.408c-7.616 7.616-18.72 10.24-28.992 6.816l-307.584-101.6c-20.16-6.656-26.24-32.064-11.296-47.168l59.84-60.064c-27.84-45.76-22.016-106.432 17.504-145.92 37.92-36.896 96.576-46.56 145.6-17.12l60.48-60.48c14.912-14.912 40.512-8.864 47.168 11.296l46.080 139.040 156.8-156.8c-9.024-15.872-14.496-34.24-14.496-53.952 0-32.064 14.080-60.864 36.064-80.832l-144.736-284.608h-87.36v20.16c0 15.68-12.608 28.416-28.32 28.416s-28.48-12.672-28.48-28.384v-20.16h-67.072c-9.664 0-18.752-4.8-24-13.12l-68.896-107.36c-12.032-19.040 1.408-43.84 24-43.84h594.88c22.72 0 36.256 24.8 24.16 43.744zM126.016 644.064c-17.12 17.152-21.76 41.6-15.104 63.136l78.016-78.016c-21.376-7.040-45.76-2.24-62.88 14.912zM299.36 599.136l-218.080 218.304 247.36 81.6 52.384-52.8-81.6-247.040zM688.352 465.696c0-28.8-23.36-52.16-52.16-52.16s-52.16 23.36-52.16 52.16c0 28.8 23.36 52.16 52.16 52.16s52.16-23.36 52.16-52.16zM190.72-7.168l32.448 50.56h425.92l32.416-50.56h-490.784z" />
<glyph unicode="&#xe92a;" glyph-name="desktop" horiz-adv-x="619" d="M623.595 880.341v-864.32c-0.512-1.621-1.195-3.2-1.536-4.843-7.573-36.245-29.12-59.925-64.256-71.296-4.992-1.621-10.219-2.603-15.317-3.883h-461.483c-4.117 1.109-8.256 2.176-12.352 3.307-28.501 7.915-49.493 24.704-61.248 52.224-5.504 12.885-7.403 26.453-7.403 40.384l0.021 831.104c0 3.733 0.021 7.488 0.341 11.221 2.88 34.069 18.944 59.733 49.365 75.733 11.723 6.317 25.656 10.028 40.455 10.028 0.193 0 0.385-0.001 0.577-0.002 147.384-0.149 294.818-0.085 442.232-0.149 4.779 0 9.664-0.299 14.336-1.216 37.504-7.339 61.803-29.44 72.981-65.963 1.237-4.075 2.197-8.235 3.264-12.331zM69.568 530.005v-3.477c0-25.941 0.064-51.883 0-77.824-0.128-60.075-0.384-120.171-0.448-180.245-0.085-78.912-0.021-157.845 0-236.757 0-2.368 0.128-4.757 0.384-7.104 1.045-10.027 6.912-16.619 16.811-18.667 2.837-0.576 5.803-0.768 8.704-0.768 144.405-0.043 288.832-0.043 433.237-0.021 1.088 0 2.197-0.021 3.285 0.043 12.459 0.64 19.989 6.699 22.165 17.984 0.397 2.107 0.624 4.531 0.624 7.008 0 0.221-0.002 0.442-0.005 0.663 0.043 165.385 0.043 330.804 0.043 496.244 0 0.96-0.085 1.92-0.128 2.944h-484.693zM69.12 780.309h485.099c0.064 0.96 0.149 1.749 0.149 2.56 0 27.669 0.021 55.339-0.021 83.008-0.028 2.15-0.182 4.235-0.456 6.281-1.166 9.591-6.926 15.969-16.632 17.847-2.555 0.465-5.495 0.731-8.498 0.731-0.268 0-0.535-0.002-0.801-0.006-139.608 0.043-279.234 0.043-418.882 0.022-5.845 0-11.691 0.107-17.536-0.064-12.373-0.384-19.84-6.592-21.867-18.133-0.344-2.056-0.541-4.424-0.541-6.839 0-0.281 0.003-0.561 0.008-0.841-0.043-27.179-0.022-54.379-0.022-81.601v-2.965zM69.589 600.043h484.181v109.76h-484.181v-109.76zM213.867 242.539c-0.256 54.144 42.944 97.685 95.68 98.645 53.803 0.981 98.539-41.835 99.883-95.381 1.344-53.44-40.683-98.901-94.805-100.352-55.531-1.472-99.563 41.216-100.757 97.088zM271.979 243.413c-0.619-20.651 16.981-39.317 37.76-40 22.357-0.725 40.917 16.363 41.579 38.336 0.011 0.349 0.017 0.759 0.017 1.171 0 21.603-17.172 39.196-38.611 39.873-21.844 0.727-40.062-16.916-40.724-39.38z" />
<glyph unicode="&#xe92b;" glyph-name="document" d="M391.488 840.171c-4.288 62.4 48.363 119.317 113.664 119.829 63.979 0.512 119.168-56.149 114.283-119.829h4.928c65.941-0.043 131.861 0.064 197.824-0.107 33.664-0.064 61.611-20.267 70.805-51.691 2.56-8.725 3.563-18.197 3.584-27.349 0.192-248.768 0.192-497.515 0-746.283 0-8.875-0.96-18.112-3.648-26.496-8.981-28.139-28.864-44.651-57.6-50.475-5.263-1.061-11.312-1.668-17.504-1.668-0.289 0-0.578 0.001-0.866 0.004-204.948-0.107-409.918-0.299-614.889 0.149-35.648 0.064-63.36 23.125-71.893 55.808-1.844 6.778-2.903 14.56-2.903 22.59 0 0.188 0.001 0.377 0.002 0.565 0.405 250.403 0.256 500.835 0.405 751.288-0.005 0.323-0.008 0.705-0.008 1.087 0 33.679 23.227 61.932 54.535 69.617 7.233 1.75 14.978 2.705 22.942 2.726 60.344 0.235 120.696 0.128 181.006 0.149h5.333zM262.848 775.104c-0.171 0-1.088 0.128-2.027 0.128h-50.069c-15.936 0-18.283-2.347-18.283-18.24l0.043-182.699 0.171-556.864c0-13.952 1.813-15.765 15.744-15.765h608.64c1.963 0 3.925-0.043 5.888 0.192 5.611 0.661 7.957 3.029 8.491 8.64 0.299 3.371 0.32 6.72 0.32 10.091l0.064 732.8c0 3.243 0.107 6.464 0 9.685-0.32 9.493-2.731 11.904-12.203 11.925-22.869 0.107-45.717 0.107-68.608 0.107-1.067 0-2.112-0.149-3.008-0.256 1.451-7.232 3.392-14.187 4.139-21.227 6.016-57.429-38.037-106.944-95.616-107.051-100.608-0.192-201.173-0.192-301.781 0-0.025 0-0.055 0-0.085 0-52.807 0-95.616 42.809-95.616 95.616 0 0.698 0.007 1.394 0.022 2.088 0.19 10.136 2.537 20.355 3.881 30.744zM474.304 775.189h-84.117c-24.96 0-49.941 0.107-74.901-0.043-1.941 0-4.757-0.896-5.653-2.304-11.264-17.664-13.056-36.053-3.328-55.040 9.792-19.072 25.131-29.952 46.912-29.973 101.568-0.128 203.136-0.107 304.704 0.021 5.12 0 10.325 1.024 15.317 2.24 25.685 6.251 50.816 44.48 30.528 79.552-2.304 4.011-4.736 5.696-9.493 5.696-48.683-0.192-97.387-0.171-146.048-0.171-1.451 0-2.923 0.128-5.696 0.256 4.16 5.376 7.509 9.941 11.115 14.336 2.901 3.584 6.336 6.784 8.981 10.56 16.768 23.637 19.456 48.981 6.976 75.093-12.224 25.6-33.664 38.464-61.696 39.808-44.971 2.155-80.491-38.336-73.344-82.816 2.944-18.368 12.416-32.768 25.877-44.971 4.245-3.84 8.533-7.616 13.845-12.309zM540.885 256.768h-210.88c-7.659-0.192-14.848 0.704-18.112 9.067-3.669 9.472-3.733 18.837 3.179 26.923 1.941 2.283 5.696 3.179 8.768 4.245 1.621 0.576 3.605 0.171 5.44 0.171h419.648c1.707 0 3.349 0 5.056-0.043 9.344-0.256 14.549-4.139 16.299-13.184 0.832-4.437 0.875-9.28 0.043-13.717-1.813-9.515-7.253-13.461-16.875-13.461l-212.544 0.043zM499.733 457.877c56.683 0 113.344 0 170.027-0.043 2.645 0 5.312-0.171 7.957-0.491 5.696-0.683 9.408-4.032 11.563-9.216 2.901-7.104 2.773-14.251-0.32-21.248-2.24-5.099-5.952-8.491-11.733-8.939-2.645-0.235-5.312-0.427-7.957-0.427l-337.088-0.107c-0.832 0-1.707 0.043-2.539 0-8-0.299-14.763 1.493-18.027 9.941-3.712 9.579-2.155 20.928 3.904 26.816 3.051 2.944 6.72 3.669 10.816 3.669 35.904-0.064 71.808-0.043 107.733-0.043l65.664-0.021zM433.877 502.379h-108.16c-19.072 0-38.144 0.021-57.259-0.043-7.381-0.043-14.336 1.152-17.877 8.491-1.746 3.317-2.77 7.248-2.77 11.419 0 4.856 1.389 9.387 3.791 13.219 2.286 3.864 6.211 5.869 10.67 6.595 2.624 0.427 5.312 0.576 7.957 0.576l324.885-0.064c2.112 0 4.224-0.043 6.293-0.171 9.024-0.683 13.867-4.224 15.403-13.141 0.896-5.205 0.597-10.944-0.619-16.128-1.728-7.424-6.741-10.923-14.016-10.923-56.107-0.064-112.235-0.021-168.32-0.021v0.128zM479.040 378.005h149.333c10.773 0 15.36-2.581 18.539-10.475 3.563-8.789 1.664-20.011-4.331-25.984-3.221-3.221-7.168-4.032-11.541-4.032-49.792 0.064-99.541 0.043-149.333 0.043-50.624 0-101.248 0.064-151.872-0.064-8.213-0.043-15.104 1.728-18.261 10.283-3.499 9.301-3.008 18.197 3.712 26.005 3.072 3.584 7.36 4.203 11.861 4.203 26.496-0.043 53.035 0 79.509 0h72.363zM444.544 216.299h115.669c10.56 0 15.040-2.752 18.027-11.072 3.392-9.408 1.344-21.163-5.12-26.048-2.492-1.73-5.539-2.829-8.831-3.006-7.724-0.45-15.468-0.237-23.169-0.237-70.272 0-140.523 0.043-210.773-0.064-8.021 0-15.296 0.896-18.731 9.472-3.776 9.451-3.008 18.411 3.413 26.539 2.837 3.584 6.848 4.459 11.307 4.416 39.381-0.064 78.805-0.043 118.208-0.043v0.043zM547.733 843.776c0.001-0.089 0.001-0.194 0.001-0.299 0-23.211-18.816-42.027-42.027-42.027-0.030 0-0.061 0-0.091 0-23.505-0.043-42.769 19.093-42.683 42.389 0.132 23.337 18.978 42.228 42.285 42.432 0.096 0.001 0.186 0.001 0.276 0.001 23.305 0 42.197-18.892 42.197-42.197 0-0.105 0-0.21-0.001-0.316zM482.581 843.776c0-12.885 9.984-22.976 22.784-23.040s23.36 10.368 23.36 23.104c0 12.629-10.731 23.211-23.424 23.125s-22.699-10.304-22.72-23.189z" />
<glyph unicode="&#xe92c;" glyph-name="dollar" horiz-adv-x="576" d="M331.243 960c4.011-0.683 8.064-1.067 11.968-2.048 17.621-4.544 29.44-18.091 31.744-36.224 0.448-3.648 0.768-7.339 0.768-11.008 0.021-16.405-0.064-32.875-0.171-49.28-0.021-3.648 0.043-3.84 3.563-4.672 21.248-4.949 42.027-11.392 61.781-20.693 28.075-13.227 52.843-30.848 72.427-55.168 16.898-20.583 28.057-46.465 30.7-74.82 0.532-5.671 0.831-10.812 0.873-15.932 0.107-19.584 0.064-39.147 0-58.731 0.005-0.26 0.008-0.566 0.008-0.874 0-7.784-1.781-15.151-4.959-21.717-7.294-14.721-19.838-22.529-36.222-23.212-33.387-1.472-66.795-1.28-100.16-0.064-20.921 0.566-37.966 16.439-40.365 36.796-1.342 11.268-1.043 22.575-0.766 33.732 0.192 7.808-1.792 11.925-9.109 14.763-12.523 4.8-25.024 9.749-38.293 12.096-27.136 4.757-52.864 0.917-76.736-13.227-6.889-3.995-12.501-9.485-16.525-16.053-8.051-13.579-6.793-29.387 3.618-43.019 9.259-12.075 20.885-21.333 34.325-28.352 34.219-17.835 69.248-33.963 104.192-50.176 28.203-13.099 56-26.859 82.091-43.883 26.219-17.088 49.941-36.928 69.568-61.461 21.961-27.017 37.761-59.917 44.747-95.961 1.973-10.641 2.698-20.071 4.426-29.351 1.024-5.483 1.173-10.923 1.451-16.448 0.683-14.784-1.131-29.312-3.648-43.84-4.523-25.92-11.904-50.88-23.744-74.411-19.029-37.824-46.976-67.541-82.304-90.56-22.073-14.508-47.52-26.605-74.598-34.992-6.148-1.786-6.106-1.893-6.106-5.968 0-17.451 0-34.837-0.043-52.288-0.043-10.624-2.432-20.501-9.237-29.013-3.477-4.277-7.658-7.826-12.392-10.511-4.056-2.353-7.96-4.507-11.885-6.513-1.116-0.553-2.43-0.876-3.82-0.876-0.052 0-0.104 0-0.156 0.001-29.454-0.064-58.936-0.064-88.398 0.043-2.083 0.131-4.010 0.684-5.734 1.574-10.266 4.57-18.863 11.269-24.73 21.125-4.559 7.818-7.287 17.191-7.381 27.194-0.128 4.699 0.341 9.371 0.341 14.043 0.064 12.288 0.043 24.555 0.128 36.821 0 1.792-0.896 2.155-2.283 2.496-21.817 5.654-40.604 12.495-58.527 20.875-40.63 18.784-77.067 46.709-108.022 81.952-11.904 13.568-23.189 27.605-32.64 43.072-3.989 6.129-7.265 13.208-9.459 20.747-3.703 14.261-0.589 26.399 9.331 36.341 5.675 5.696 11.968 10.773 18.176 15.893-2.067-1.225 17.312 14.813 36.737 30.796 30.954 24.884 40.17 29.3 50.836 29.812 14.421 0.683 25.984-5.376 34.965-16.192 5.376-6.464 9.984-13.589 14.933-20.416 18.432-25.408 41.429-45.312 70.059-58.517 17.792-8.235 36.352-13.12 56.043-12.864 16.576 0.235 32.725 3.008 47.701 10.389 18.432 9.131 29.675 23.829 32.576 44.459 0.396 2.472 0.623 5.321 0.623 8.224 0 5.112-0.702 10.060-2.016 14.753-2.255 8-7.055 14.677-13.689 20.309-24.128 20.437-51.243 36.032-79.68 49.536-61.575 28.063-89.708 41.903-117.706 55.974-0.907 1.797-31.627 21.573-59.211 45.957-39.701 35.093-64.661 78.763-73.941 130.859-11.456 64.192 1.92 122.901 41.984 174.805 23.808 30.869 54.357 53.483 89.749 69.461 16.832 7.616 34.069 14.208 51.2 21.163 1.728 0.704 2.219 1.579 2.219 3.349-0.064 16.64-0.064 33.323 0 49.984 0.043 7.808 1.088 15.445 3.861 22.784 5.696 15.019 17.088 22.912 32.427 25.771 3.392 0.64 6.805 0.96 10.219 1.408h72.32zM274.155 897.365v-2.645c0-16.896 0.043-33.792-0.043-50.645 0-4.075-0.107-8.128-0.448-12.203-1.216-13.803-7.872-23.808-20.8-29.291-1.776-0.806-3.991-1.633-6.266-2.324-8.988-2.476-17.606-4.652-26.161-7.020-29.291-8.107-56.128-21.056-79.275-40.917-34.517-29.611-53.696-67.072-56.149-112.619-1.515-27.712 4.224-54.144 16.213-79.168 13.099-27.328 32.576-49.195 57.259-66.688 32.064-22.763 66.176-41.877 101.76-58.496 26.24-12.245 52.672-24.192 77.824-38.656 20.437-11.733 40.427-24.192 58.304-39.68 42.496-36.8 52.16-97.728 22.059-145.173-23.445-36.971-58.581-55.829-101.312-61.504-17.365-2.304-34.752-1.344-52.075 1.28-29.764 4.52-56.452 14.729-79.967 29.52-25.377 15.792-47.031 36.976-65.761 61.36l-4.864 6.293-46.208-38.421c0.619-0.875 1.088-1.621 1.643-2.368 5.504-7.019 10.795-14.187 16.533-20.971 47.36-55.616 107.648-87.019 179.968-95.637 6.144-0.747 8-2.688 8-8.896v-82.923h40.021v3.115c0.043 17.899 0 35.776 0.107 53.653 0 3.349 0.192 6.741 0.64 10.091 1.685 12.224 7.872 21.355 19.285 26.389 3.556 1.664 7.708 3.055 12.037 3.965 26.428 5.323 49.565 14.445 70.464 26.928 31.804 18.707 56.657 45.139 71.633 80.403 8.555 20.096 13.099 41.109 14.976 62.805 0.517 5.129 0.812 11.084 0.812 17.108 0 15.346-1.914 30.245-5.517 44.471-8.756 34.272-28.596 62.752-56.692 85.792-17.515 14.379-36.864 25.941-56.64 36.821-38.592 21.227-78.165 40.363-118.272 58.56-16.32 7.424-32.704 14.827-47.893 24.427-19.051 12.032-35.584 26.731-47.701 45.909-13.248 20.971-19.051 43.797-15.68 68.523 3.413 25.088 15.36 45.696 34.325 62.272 15.595 13.589 33.728 22.592 53.504 28.16 16.505 4.8 35.464 7.561 55.068 7.561 11.546 0 22.868-0.958 33.891-2.798 21.39-3.238 41.552-11.545 58.867-23.646 22.371-15.634 33.912-37.266 32.248-65.448-0.128-2.283-0.043-4.587-0.043-6.976h59.691c0.064 0.683 0.128 1.195 0.128 1.707 0 13.504 0.107 27.008-0.021 40.533-0.090 8.445-1.346 16.561-3.615 24.243-5.473 19.127-17.462 34.381-33.398 46.839-21.653 16.917-46.379 27.413-72.896 33.749-17.216 4.096-34.624 7.488-51.925 11.136-6.443 1.387-7.893 3.072-7.893 9.664v82.027h-39.787z" />
<glyph unicode="&#xe92d;" glyph-name="down" d="M-0.939 670.379c0.704 4.629 1.131 9.301 2.176 13.845 6.594 27.472 30.649 47.683 59.533 48.34 19.421 0.428 35.421-6.719 48.968-20.244 131.904-131.925 263.829-263.829 395.755-395.819 1.237-1.259 2.133-2.88 3.221-4.331l1.835-0.192c1.109 1.579 2.005 3.371 3.349 4.715 131.541 131.776 263.125 263.509 394.709 395.285 9.707 9.685 20.864 16.469 34.411 19.392 38.357 8.192 75.2-20.459 76.629-59.584 0.704-19.051-5.781-35.072-19.264-48.491-22.72-22.635-45.355-45.355-68.011-68.011-125.44-125.44-250.901-250.88-376.299-376.341-10.475-10.496-22.485-17.664-37.376-19.413-19.776-2.347-37.547 2.197-52.459 16-1.323 1.237-2.581 2.517-3.861 3.797-147.52 147.52-295.019 295.061-442.603 442.517-10.411 10.389-17.451 22.293-19.584 36.949-0.448 3.115-0.747 6.272-1.131 9.408v2.176z" />
<glyph unicode="&#xe92e;" glyph-name="download" d="M512 917.355q17.664 0 30.187-12.523t12.523-30.165v-494.336l140.331 140.672q12.331 12.331 30.336 12.331 18.325 0 30.485-12.16t12.16-30.485q0-18.027-12.331-30.336l-213.333-213.333q-12.331-12.331-30.336-12.331t-30.336 12.331l-213.333 213.333q-12.331 12.992-12.331 30.336 0 17.664 12.523 30.187t30.165 12.523q18.027 0 30.336-12.331l140.309-140.672v494.336q0 17.664 12.523 30.187t30.187 12.501zM938.645 320q17.664 0 30.187-12.501t12.523-30.187v-170.667q0-53.355-36.992-90.325-37.675-37.675-90.027-37.675h-683.669q-52.309 0-90.667 37.355-37.355 38.336-37.355 90.645v170.645q0 17.664 12.523 30.187t30.165 12.523 30.187-12.501 12.501-30.187v-170.667q0-17.664 12.523-30.187t30.165-12.523h683.669q17.344 0 29.504 12.523t12.16 30.165v170.667q0 17.664 12.523 30.187t30.187 12.523z" />
<glyph unicode="&#xe92f;" glyph-name="drink" d="M972.8 960h-153.6c-15.36 0-25.6-5.12-35.84-15.36l-189.44-189.44h-189.44c-25.6 87.040-102.4 153.6-199.68 153.6-112.64 0-204.8-92.16-204.8-204.8 0-143.36 143.36-245.76 281.6-189.44l179.2-235.52v-240.64h-153.6c-30.72 0-51.2-20.48-51.2-51.2s20.48-51.2 51.2-51.2h409.6c30.72 0 51.2 20.48 51.2 51.2s-20.48 51.2-51.2 51.2h-153.6v240.64l296.96 394.24c25.6 35.84 0 81.92-40.96 81.92h-81.92l102.4 102.4h133.12c30.72 0 51.2 20.48 51.2 51.2s-20.48 51.2-51.2 51.2zM102.4 704c0 56.32 46.080 102.4 102.4 102.4 35.84 0 71.68-20.48 87.040-51.2h-87.040c-40.96 0-66.56-46.080-40.96-81.92l51.2-71.68c-66.56-5.12-112.64 46.080-112.64 102.4zM512 381.44c-40.96 51.2-189.44 250.88-204.8 271.36h409.6l-204.8-271.36z" />
<glyph unicode="&#xe930;" glyph-name="droplet" d="M539.84 949.12c-7.641 5.842-17.33 9.361-27.84 9.361s-20.199-3.519-27.951-9.442c-15.846-11.801-389.649-295.726-389.649-593.838 0-230.272 187.349-417.6 417.6-417.6s417.6 187.349 417.6 417.6c0 298.133-373.803 582.037-389.76 593.92zM512 30.4c-179.221 0-324.8 145.579-324.8 324.8 0 209.387 241.579 428.053 324.8 497.344 83.221-69.312 324.8-287.979 324.8-497.344 0-179.221-145.579-324.8-324.8-324.8z" />
</font>
</defs>
</svg>
